<?xml version="1.0" encoding="utf-8"?>
<!-- Generator: Adobe Illustrator 27.5.0, SVG Export Plug-In . SVG Version: 6.00 Build 0)  -->
<svg version="1.1" id="Layer_1" xmlns="http://www.w3.org/2000/svg" xmlns:xlink="http://www.w3.org/1999/xlink" x="0px" y="0px"
	 viewBox="0 0 2500 2000" style="enable-background:new 0 0 2500 2000;" xml:space="preserve">
<rect style="fill:#FFFFFF;" width="2500" height="2000"/>
<path style="fill:#FFE8F8;" d="M657.102,1607.16c0,0-120.719-106.417-280.686-459.647
	c-159.968-353.23-99.082-769.147,188.411-809.139c287.494-39.992,510.729,130.293,510.729,130.293s320.656-102.443,576.605-32.385
	c255.948,70.059,230.762,413.366,230.762,413.366s161.401,95.329,227.268,311.923c65.866,216.594-160.728,444.667-160.728,444.667
	L657.102,1607.16z"/>
<path style="fill:#00B3BF;" d="M2067.457,1627.541H563.731c-8.319,0-15.064-6.744-15.064-15.063v-0.42
	c0-8.319,6.744-15.063,15.064-15.063h1503.727c8.319,0,15.064,6.744,15.064,15.063v0.42
	C2082.521,1620.797,2075.776,1627.541,2067.457,1627.541z"/>
<path style="fill:#EAE9F3;" d="M1765.854,1406.723H738.51c-17.798,0-32.227-13.46-32.227-30.064L686.74,673.326
	c0-16.604,14.428-30.065,32.227-30.065H1795.17c17.798,0,32.227,13.461,32.227,30.065l-29.315,703.333
	C1798.081,1393.263,1783.652,1406.723,1765.854,1406.723z"/>
<path style="fill:#676E9C;" d="M1814.88,649.538c3.421,4.774,5.416,10.513,5.416,16.687l-29.315,703.333
	c0,16.604-14.429,30.064-32.227,30.064H731.41c-7.424,0-14.261-2.342-19.709-6.277c5.779,8.066,15.63,13.378,26.81,13.378h1027.344
	c17.798,0,32.227-13.46,32.227-30.065l29.315-703.332C1827.396,663.647,1822.494,655.037,1814.88,649.538z"/>
<path style="fill:#6CBDE1;" d="M750.961,1324.388L731.418,693.94c0-16.605,14.428-30.065,32.226-30.065h998.078
	c17.798,0,32.227,13.46,32.227,30.065l-29.315,630.448c0,16.604-14.429,30.064-32.227,30.064H783.188
	C765.39,1354.452,750.961,1340.991,750.961,1324.388z"/>
<linearGradient id="SVGID_1_" gradientUnits="userSpaceOnUse" x1="1302.1052" y1="1503.4417" x2="1249.3732" y2="691.9614">
	<stop  offset="0" style="stop-color:#0082C1"/>
	<stop  offset="1" style="stop-color:#8DDCFF"/>
</linearGradient>
<path style="fill:url(#SVGID_1_);" d="M749.497,1339.85l-19.543-630.448c0-16.604,14.428-30.064,32.227-30.064h998.078
	c17.798,0,32.227,13.46,32.227,30.064l-29.315,630.448c0,16.604-14.429,30.064-32.227,30.064H781.723
	C763.925,1369.914,749.497,1356.454,749.497,1339.85z"/>
<linearGradient id="SVGID_00000011727805038848369500000012476030936375545021_" gradientUnits="userSpaceOnUse" x1="1288.3906" y1="1463.0229" x2="1256.2897" y2="969.0283">
	<stop  offset="0" style="stop-color:#0082C1"/>
	<stop  offset="1" style="stop-color:#8DDCFF"/>
</linearGradient>
<path style="opacity:0.32;fill:url(#SVGID_00000011727805038848369500000012476030936375545021_);" d="M1591.05,1055.253
	c-121.094,212.983-332.031,119.048-618.968,75.146c-96.391-14.748-170.78,16.61-227.07,64.763l4.485,144.688
	c0,16.604,14.428,30.064,32.227,30.064h949.219c17.798,0,32.227-13.46,32.227-30.064l20.091-432.068
	C1694.7,949.984,1622.89,999.251,1591.05,1055.253z"/>
<g>
	<path style="fill:#AFD6FF;" d="M1725.414,1331.829h-17.984c-0.539,0-0.977-0.437-0.977-0.977c0-0.539,0.438-0.977,0.977-0.977
		h16.119l0.254-5.447c0.023-0.538,0.496-1.002,1.021-0.929c0.538,0.024,0.956,0.48,0.929,1.021L1725.414,1331.829z
		 M1683.992,1331.829h-23.438c-0.539,0-0.977-0.437-0.977-0.977c0-0.539,0.438-0.977,0.977-0.977h23.438
		c0.54,0,0.977,0.438,0.977,0.977C1684.969,1331.393,1684.532,1331.829,1683.992,1331.829z M1637.117,1331.829h-23.438
		c-0.539,0-0.977-0.437-0.977-0.977c0-0.539,0.438-0.977,0.977-0.977h23.438c0.54,0,0.977,0.438,0.977,0.977
		C1638.094,1331.393,1637.657,1331.829,1637.117,1331.829z M1590.242,1331.829h-23.438c-0.539,0-0.977-0.437-0.977-0.977
		c0-0.539,0.438-0.977,0.977-0.977h23.438c0.54,0,0.977,0.438,0.977,0.977C1591.219,1331.393,1590.782,1331.829,1590.242,1331.829z
		 M1543.367,1331.829h-23.438c-0.539,0-0.977-0.437-0.977-0.977c0-0.539,0.438-0.977,0.977-0.977h23.438
		c0.54,0,0.977,0.438,0.977,0.977C1544.344,1331.393,1543.907,1331.829,1543.367,1331.829z M1496.492,1331.829h-23.438
		c-0.539,0-0.977-0.437-0.977-0.977c0-0.539,0.438-0.977,0.977-0.977h23.438c0.54,0,0.977,0.438,0.977,0.977
		C1497.469,1331.393,1497.032,1331.829,1496.492,1331.829z M1449.617,1331.829h-23.438c-0.539,0-0.977-0.437-0.977-0.977
		c0-0.539,0.438-0.977,0.977-0.977h23.438c0.54,0,0.977,0.438,0.977,0.977C1450.594,1331.393,1450.157,1331.829,1449.617,1331.829z
		 M1402.742,1331.829h-23.438c-0.54,0-0.977-0.437-0.977-0.977c0-0.539,0.436-0.977,0.977-0.977h23.438
		c0.54,0,0.977,0.438,0.977,0.977C1403.719,1331.393,1403.282,1331.829,1402.742,1331.829z M1355.867,1331.829h-23.438
		c-0.54,0-0.977-0.437-0.977-0.977c0-0.539,0.436-0.977,0.977-0.977h23.438c0.54,0,0.977,0.438,0.977,0.977
		C1356.844,1331.393,1356.407,1331.829,1355.867,1331.829z M1308.992,1331.829h-23.438c-0.54,0-0.977-0.437-0.977-0.977
		c0-0.539,0.436-0.977,0.977-0.977h23.438c0.54,0,0.977,0.438,0.977,0.977C1309.969,1331.393,1309.532,1331.829,1308.992,1331.829z
		 M1262.117,1331.829h-23.438c-0.54,0-0.977-0.437-0.977-0.977c0-0.539,0.437-0.977,0.977-0.977h23.438
		c0.54,0,0.977,0.438,0.977,0.977C1263.094,1331.393,1262.657,1331.829,1262.117,1331.829z M1215.242,1331.829h-23.438
		c-0.54,0-0.977-0.437-0.977-0.977c0-0.539,0.437-0.977,0.977-0.977h23.438c0.54,0,0.977,0.438,0.977,0.977
		C1216.218,1331.393,1215.781,1331.829,1215.242,1331.829z M1168.367,1331.829h-23.437c-0.54,0-0.976-0.437-0.976-0.977
		c0-0.539,0.437-0.977,0.976-0.977h23.437c0.54,0,0.977,0.438,0.977,0.977C1169.343,1331.393,1168.906,1331.829,1168.367,1331.829z
		 M1121.493,1331.829h-23.438c-0.54,0-0.976-0.437-0.976-0.977c0-0.539,0.437-0.977,0.976-0.977h23.438
		c0.54,0,0.977,0.438,0.977,0.977C1122.469,1331.393,1122.032,1331.829,1121.493,1331.829z M1074.618,1331.829h-23.438
		c-0.54,0-0.977-0.437-0.977-0.977c0-0.539,0.437-0.977,0.977-0.977h23.438c0.54,0,0.977,0.438,0.977,0.977
		C1075.594,1331.393,1075.157,1331.829,1074.618,1331.829z M1027.743,1331.829h-23.438c-0.54,0-0.977-0.437-0.977-0.977
		c0-0.539,0.436-0.977,0.977-0.977h23.438c0.54,0,0.977,0.438,0.977,0.977C1028.719,1331.393,1028.282,1331.829,1027.743,1331.829z
		 M980.868,1331.829H957.43c-0.54,0-0.977-0.437-0.977-0.977c0-0.539,0.436-0.977,0.977-0.977h23.438
		c0.539,0,0.977,0.438,0.977,0.977C981.844,1331.393,981.407,1331.829,980.868,1331.829z M933.993,1331.829h-23.438
		c-0.54,0-0.977-0.437-0.977-0.977c0-0.539,0.436-0.977,0.977-0.977h23.438c0.539,0,0.977,0.438,0.977,0.977
		C934.969,1331.393,934.532,1331.829,933.993,1331.829z M887.118,1331.829H863.68c-0.54,0-0.977-0.437-0.977-0.977
		c0-0.539,0.436-0.977,0.977-0.977h23.438c0.539,0,0.977,0.438,0.977,0.977C888.094,1331.393,887.657,1331.829,887.118,1331.829z
		 M840.243,1331.829h-23.438c-0.54,0-0.977-0.437-0.977-0.977c0-0.539,0.436-0.977,0.977-0.977h23.438
		c0.539,0,0.977,0.438,0.977,0.977C841.219,1331.393,840.782,1331.829,840.243,1331.829z M793.368,1331.829h-6.016l-0.755-24.372
		c-0.017-0.54,0.407-0.989,0.946-1.007c0.554,0.021,0.99,0.406,1.007,0.945l0.696,22.48h4.122c0.539,0,0.977,0.438,0.977,0.977
		C794.344,1331.393,793.907,1331.829,793.368,1331.829z M1725.867,1302.038c-0.016,0-0.031,0-0.047-0.002
		c-0.537-0.024-0.955-0.48-0.928-1.02l1.088-23.413c0.025-0.538,0.521-1.005,1.021-0.929c0.537,0.024,0.955,0.48,0.928,1.02
		l-1.088,23.413C1726.818,1301.63,1726.386,1302.038,1725.867,1302.038z M786.845,1284.978c-0.524,0-0.958-0.418-0.976-0.946
		l-0.725-23.427c-0.017-0.539,0.406-0.989,0.945-1.007c0.559,0.012,0.99,0.408,1.006,0.946l0.727,23.426
		c0.016,0.54-0.407,0.99-0.946,1.008C786.866,1284.978,786.856,1284.978,786.845,1284.978z M1728.045,1255.215
		c-0.016,0-0.03,0-0.046-0.002c-0.538-0.024-0.956-0.48-0.929-1.021l1.089-23.412c0.022-0.538,0.479-0.979,1.021-0.93
		c0.538,0.025,0.955,0.48,0.929,1.021l-1.089,23.413C1728.996,1254.807,1728.563,1255.215,1728.045,1255.215z M785.394,1238.125
		c-0.526,0-0.959-0.418-0.975-0.946l-0.727-23.426c-0.016-0.54,0.407-0.99,0.946-1.007c0.541,0,0.989,0.407,1.007,0.946
		l0.725,23.426c0.017,0.539-0.406,0.99-0.945,1.007C785.414,1238.125,785.403,1238.125,785.394,1238.125z M1730.221,1208.39
		c-0.015,0-0.03,0-0.045-0.002c-0.538-0.025-0.956-0.48-0.93-1.021l1.09-23.411c0.024-0.537,0.505-0.986,1.02-0.929
		c0.538,0.024,0.956,0.48,0.93,1.021l-1.09,23.41C1731.173,1207.981,1730.74,1208.39,1730.221,1208.39z M783.94,1191.271
		c-0.524,0-0.958-0.417-0.976-0.945l-0.725-23.426c-0.017-0.54,0.407-0.99,0.946-1.008c0.544,0.033,0.99,0.406,1.006,0.946
		l0.727,23.426c0.016,0.54-0.407,0.99-0.946,1.007C783.961,1191.271,783.951,1191.271,783.94,1191.271z M1732.399,1161.565
		c-0.016,0-0.03,0-0.046-0.002c-0.538-0.024-0.955-0.48-0.929-1.02l1.089-23.413c0.023-0.538,0.463-0.989,1.021-0.929
		c0.538,0.024,0.956,0.48,0.929,1.021l-1.089,23.413C1733.352,1161.157,1732.918,1161.565,1732.399,1161.565z M782.488,1144.419
		c-0.525,0-0.959-0.418-0.975-0.946l-0.726-23.426c-0.017-0.54,0.406-0.99,0.945-1.007c0.583-0.031,0.99,0.408,1.007,0.945
		l0.725,23.426c0.017,0.541-0.406,0.99-0.945,1.008C782.509,1144.419,782.498,1144.419,782.488,1144.419z M1734.576,1114.74
		c-0.016,0-0.031,0-0.047-0.002c-0.537-0.024-0.955-0.48-0.929-1.021l1.089-23.41c0.023-0.538,0.49-0.998,1.021-0.93
		c0.537,0.025,0.955,0.481,0.929,1.021l-1.089,23.41C1735.527,1114.332,1735.094,1114.74,1734.576,1114.74z M781.036,1097.567
		c-0.525,0-0.958-0.418-0.975-0.946l-0.726-23.427c-0.016-0.539,0.407-0.99,0.946-1.007c0.575-0.008,0.99,0.406,1.006,0.946
		l0.727,23.426c0.016,0.54-0.407,0.99-0.946,1.008C781.057,1097.567,781.046,1097.567,781.036,1097.567z M1736.754,1067.917
		c-0.016,0-0.031,0-0.046-0.002c-0.538-0.024-0.956-0.48-0.929-1.021l1.089-23.413c0.024-0.537,0.515-1.001,1.021-0.928
		c0.538,0.024,0.955,0.48,0.929,1.02l-1.089,23.413C1737.705,1067.509,1737.272,1067.917,1736.754,1067.917z M779.583,1050.715
		c-0.524,0-0.958-0.418-0.976-0.946l-0.725-23.426c-0.017-0.54,0.406-0.99,0.945-1.008c0.599-0.007,0.989,0.408,1.007,0.946
		l0.725,23.427c0.018,0.539-0.406,0.989-0.945,1.007C779.604,1050.715,779.594,1050.715,779.583,1050.715z M1738.93,1021.092
		c-0.015,0-0.03,0-0.045-0.002c-0.538-0.025-0.956-0.481-0.93-1.021l1.09-23.412c0.022-0.538,0.475-0.975,1.02-0.93
		c0.538,0.025,0.956,0.483,0.93,1.021l-1.09,23.412C1739.882,1020.684,1739.449,1021.092,1738.93,1021.092z M778.131,1003.862
		c-0.525,0-0.958-0.418-0.975-0.945l-0.727-23.427c-0.016-0.54,0.407-0.99,0.946-1.007c0.557,0.001,0.99,0.408,1.007,0.946
		l0.726,23.427c0.016,0.54-0.407,0.99-0.946,1.007C778.152,1003.862,778.141,1003.862,778.131,1003.862z M1741.108,974.269
		c-0.016,0-0.03,0-0.046-0.001c-0.538-0.025-0.955-0.483-0.929-1.021l1.089-23.413c0.025-0.539,0.557-0.953,1.021-0.93
		c0.538,0.025,0.956,0.482,0.929,1.022l-1.089,23.413C1742.061,973.86,1741.627,974.269,1741.108,974.269z M776.678,957.01
		c-0.524,0-0.959-0.418-0.976-0.946l-0.725-23.426c-0.017-0.54,0.406-0.99,0.945-1.006c0.549-0.058,0.99,0.406,1.006,0.945
		l0.726,23.426c0.017,0.54-0.406,0.99-0.945,1.006C776.699,957.01,776.688,957.01,776.678,957.01z M1743.287,927.444
		c-0.016,0-0.031,0-0.047-0.001c-0.537-0.025-0.955-0.482-0.929-1.021l1.087-23.413c0.025-0.539,0.46-0.954,1.021-0.931
		c0.537,0.024,0.955,0.482,0.929,1.021l-1.088,23.414C1744.238,927.036,1743.805,927.444,1743.287,927.444z M775.226,910.156
		c-0.525,0-0.958-0.418-0.975-0.946l-0.727-23.426c-0.016-0.54,0.407-0.99,0.946-1.007c0.542,0.007,0.989,0.407,1.007,0.946
		l0.726,23.426c0.017,0.54-0.407,0.99-0.946,1.007C775.247,910.156,775.236,910.156,775.226,910.156z M1745.463,880.619
		c-0.016,0-0.031,0-0.046-0.001c-0.538-0.024-0.956-0.482-0.929-1.021l1.089-23.413c0.022-0.538,0.484-0.959,1.021-0.93
		c0.538,0.025,0.955,0.483,0.929,1.021l-1.089,23.413C1746.414,880.211,1745.981,880.619,1745.463,880.619z M773.773,863.305
		c-0.524,0-0.958-0.418-0.975-0.946l-0.726-23.426c-0.017-0.54,0.407-0.99,0.946-1.006c0.528-0.011,0.99,0.406,1.006,0.945
		l0.727,23.426c0.016,0.54-0.407,0.99-0.946,1.006C773.794,863.305,773.784,863.305,773.773,863.305z M1747.641,833.795
		c-0.015,0-0.03,0-0.045-0.001c-0.539-0.025-0.956-0.483-0.93-1.021l1.088-23.413c0.024-0.539,0.511-0.965,1.02-0.931
		c0.538,0.025,0.956,0.482,0.93,1.02l-1.088,23.413C1748.593,833.387,1748.16,833.795,1747.641,833.795z M772.321,816.452
		c-0.524,0-0.958-0.418-0.975-0.946l-0.726-23.427c-0.017-0.539,0.406-0.99,0.945-1.007c0.585-0.025,0.989,0.408,1.007,0.946
		l0.725,23.427c0.017,0.54-0.406,0.99-0.945,1.007C772.342,816.452,772.331,816.452,772.321,816.452z M1749.817,786.971
		c-0.016,0-0.03,0-0.046-0.001c-0.538-0.025-0.955-0.483-0.929-1.021l1.089-23.412c0.023-0.538,0.469-0.971,1.021-0.93
		c0.538,0.025,0.956,0.482,0.929,1.021l-1.089,23.412C1750.77,786.563,1750.336,786.971,1749.817,786.971z M770.869,769.6
		c-0.524,0-0.958-0.418-0.975-0.946l-0.727-23.426c-0.016-0.54,0.407-0.99,0.946-1.006c0.522-0.047,0.99,0.407,1.006,0.945
		l0.728,23.426c0.017,0.539-0.407,0.99-0.946,1.006C770.891,769.6,770.88,769.6,770.869,769.6z M1751.997,740.146
		c-0.017,0-0.032,0-0.048-0.001c-0.537-0.025-0.955-0.482-0.929-1.02l0.917-19.749h-1.623c-0.539,0-0.977-0.436-0.977-0.977
		c0-0.54,0.438-0.977,0.977-0.977h3.668l-1.012,21.792C1752.947,739.738,1752.514,740.146,1751.997,740.146z M769.418,722.747
		c-0.525,0-0.96-0.417-0.976-0.946l-0.137-4.378h21.073c0.54,0,0.977,0.436,0.977,0.977c0,0.54-0.437,0.977-0.977,0.977H770.32
		l0.073,2.364c0.017,0.539-0.406,0.99-0.945,1.007C769.438,722.747,769.428,722.747,769.418,722.747z M1726.877,719.376h-23.438
		c-0.539,0-0.977-0.436-0.977-0.977c0-0.54,0.438-0.977,0.977-0.977h23.438c0.54,0,0.977,0.436,0.977,0.977
		C1727.854,718.94,1727.417,719.376,1726.877,719.376z M1680.002,719.376h-23.438c-0.539,0-0.977-0.436-0.977-0.977
		c0-0.54,0.438-0.977,0.977-0.977h23.438c0.541,0,0.977,0.436,0.977,0.977C1680.979,718.94,1680.543,719.376,1680.002,719.376z
		 M1633.127,719.376h-23.438c-0.539,0-0.977-0.436-0.977-0.977c0-0.54,0.438-0.977,0.977-0.977h23.438
		c0.54,0,0.977,0.436,0.977,0.977C1634.104,718.94,1633.667,719.376,1633.127,719.376z M1586.252,719.376h-23.438
		c-0.539,0-0.977-0.436-0.977-0.977c0-0.54,0.438-0.977,0.977-0.977h23.438c0.541,0,0.977,0.436,0.977,0.977
		C1587.229,718.94,1586.793,719.376,1586.252,719.376z M1539.377,719.376h-23.438c-0.539,0-0.977-0.436-0.977-0.977
		c0-0.54,0.438-0.977,0.977-0.977h23.438c0.54,0,0.977,0.436,0.977,0.977C1540.354,718.94,1539.917,719.376,1539.377,719.376z
		 M1492.502,719.376h-23.438c-0.539,0-0.977-0.436-0.977-0.977c0-0.54,0.438-0.977,0.977-0.977h23.438
		c0.541,0,0.977,0.436,0.977,0.977C1493.479,718.94,1493.043,719.376,1492.502,719.376z M1445.627,719.376h-23.438
		c-0.54,0-0.977-0.436-0.977-0.977c0-0.54,0.437-0.977,0.977-0.977h23.438c0.54,0,0.977,0.436,0.977,0.977
		C1446.604,718.94,1446.167,719.376,1445.627,719.376z M1398.752,719.376h-23.438c-0.54,0-0.977-0.436-0.977-0.977
		c0-0.54,0.437-0.977,0.977-0.977h23.438c0.54,0,0.977,0.436,0.977,0.977C1399.729,718.94,1399.292,719.376,1398.752,719.376z
		 M1351.877,719.376h-23.438c-0.54,0-0.977-0.436-0.977-0.977c0-0.54,0.437-0.977,0.977-0.977h23.438
		c0.54,0,0.977,0.436,0.977,0.977C1352.854,718.94,1352.417,719.376,1351.877,719.376z M1305.002,719.376h-23.438
		c-0.54,0-0.977-0.436-0.977-0.977c0-0.54,0.437-0.977,0.977-0.977h23.438c0.54,0,0.977,0.436,0.977,0.977
		C1305.979,718.94,1305.542,719.376,1305.002,719.376z M1258.127,719.376h-23.436c-0.54,0-0.977-0.436-0.977-0.977
		c0-0.54,0.437-0.977,0.977-0.977h23.436c0.54,0,0.977,0.436,0.977,0.977C1259.104,718.94,1258.667,719.376,1258.127,719.376z
		 M1211.253,719.376h-23.438c-0.54,0-0.977-0.436-0.977-0.977c0-0.54,0.437-0.977,0.977-0.977h23.438
		c0.54,0,0.977,0.436,0.977,0.977C1212.23,718.94,1211.793,719.376,1211.253,719.376z M1164.378,719.376h-23.438
		c-0.54,0-0.977-0.436-0.977-0.977c0-0.54,0.437-0.977,0.977-0.977h23.438c0.54,0,0.977,0.436,0.977,0.977
		C1165.355,718.94,1164.918,719.376,1164.378,719.376z M1117.503,719.376h-23.438c-0.54,0-0.977-0.436-0.977-0.977
		c0-0.54,0.437-0.977,0.977-0.977h23.438c0.54,0,0.977,0.436,0.977,0.977C1118.48,718.94,1118.043,719.376,1117.503,719.376z
		 M1070.628,719.376h-23.438c-0.54,0-0.977-0.436-0.977-0.977c0-0.54,0.437-0.977,0.977-0.977h23.438
		c0.54,0,0.977,0.436,0.977,0.977C1071.605,718.94,1071.168,719.376,1070.628,719.376z M1023.753,719.376h-23.438
		c-0.54,0-0.977-0.436-0.977-0.977c0-0.54,0.436-0.977,0.977-0.977h23.438c0.54,0,0.977,0.436,0.977,0.977
		C1024.73,718.94,1024.293,719.376,1023.753,719.376z M976.878,719.376h-23.438c-0.54,0-0.977-0.436-0.977-0.977
		c0-0.54,0.436-0.977,0.977-0.977h23.438c0.54,0,0.977,0.436,0.977,0.977C977.855,718.94,977.418,719.376,976.878,719.376z
		 M930.003,719.376h-23.438c-0.54,0-0.977-0.436-0.977-0.977c0-0.54,0.436-0.977,0.977-0.977h23.438c0.54,0,0.977,0.436,0.977,0.977
		C930.98,718.94,930.543,719.376,930.003,719.376z M883.128,719.376h-23.438c-0.54,0-0.977-0.436-0.977-0.977
		c0-0.54,0.436-0.977,0.977-0.977h23.438c0.54,0,0.977,0.436,0.977,0.977C884.105,718.94,883.668,719.376,883.128,719.376z
		 M836.253,719.376h-23.438c-0.54,0-0.977-0.436-0.977-0.977c0-0.54,0.436-0.977,0.977-0.977h23.438c0.54,0,0.977,0.436,0.977,0.977
		C837.23,718.94,836.793,719.376,836.253,719.376z"/>
</g>
<linearGradient id="SVGID_00000023275384925751556830000000147213382442596009_" gradientUnits="userSpaceOnUse" x1="1351.3647" y1="1364.7695" x2="1363.0836" y2="810.0818">
	<stop  offset="0" style="stop-color:#6EA7E8"/>
	<stop  offset="1" style="stop-color:#9AD2FF"/>
</linearGradient>
<path style="fill:url(#SVGID_00000023275384925751556830000000147213382442596009_);" d="M1229.721,815.902
	c0,0,13.884,140.625,7.918,188.477l-34.285,363.281h295.898c0,0-16.602-309.57-16.602-333.008c0-23.437-4.883-218.75-4.883-218.75
	l-46.387-23.438L1314.683,791L1229.721,815.902z"/>
<g>
	<path style="fill:#87A2C2;" d="M1309.8,793.197l-58.402,16.352c0,0,23.382,116.75,37.334,130.702
		c13.952,13.952-2.369,24.414,9.35,36.133c11.719,11.719,76.66,99.772,76.66,99.772L1309.8,793.197z"/>
	<path style="fill:#87A2C2;" d="M1434.312,797.022l-59.57,279.134c0,0,63.337-111.933,68.755-117.351c5.417-5.417,0-28.32,0-39.063
		c0-10.742,33.688-104.136,33.688-104.136S1446.426,797.022,1434.312,797.022z"/>
</g>
<g>
	<path style="fill:#BADCFF;" d="M1314.683,791l-62.5,6.348c0,0,22.597,114.955,36.549,128.906
		c13.952,13.952-2.369,24.414,9.35,36.133c11.719,11.719,76.66,113.77,76.66,113.77L1314.683,791z"/>
	<path style="fill:#BADCFF;" d="M1431.382,792.465l-56.641,283.691c0,0,63.337-125.93,68.755-131.348c5.417-5.417,0-28.32,0-39.063
		s34.272-99.609,34.272-99.609S1443.496,792.465,1431.382,792.465z"/>
</g>
<polygon style="fill:#7696B5;" points="1366.44,1367.66 1374.741,1076.156 1373.032,1367.66 "/>
<rect x="1175.034" y="1406.723" style="fill:#8088C2;" width="222.657" height="23.438"/>
<polygon style="fill:#8792CE;" points="1378.644,1538.399 1194.081,1538.399 1188.217,1430.16 1384.507,1430.16 "/>
<path style="opacity:0.28;fill:#370C62;" d="M1384.507,1430.16h-196.29l5.863,108.239h24.272
	c2.387-16.844,7.146-34.789,16.252-49.188c16.457-26.022,97.684-36.252,148.878-40.154L1384.507,1430.16z"/>
<path style="fill:#676E9C;" d="M1545.151,1596.994h-501.954l0,0c0-32.36,26.233-58.595,58.594-58.595h384.766
	C1518.918,1538.399,1545.151,1564.634,1545.151,1596.994L1545.151,1596.994z"/>
<path style="fill:#FD5E5A;" d="M1003.813,830.515l-17.054-61.053l-74.946,19.219c0,0,10.687,33.253,18.147,37.818
	c5.49,3.359,22.025,13.476,30.384,18.59l0,0L1027.347,978l48.209-59.555L1003.813,830.515z"/>
<path style="fill:#26004A;" d="M1358.126,488.609c0,0,57.129-6.987,81.543,4.658c24.414,11.646,72.266,58.693,59.57,149.994
	c0,0,10.254,3.261,13.184,17.235c2.93,13.975,3.174,38.896-20.996,61.954s-64.941,20.496-85.938,20.496
	s-80.078-17.701-95.215-50.309S1358.126,488.609,1358.126,488.609z"/>
<path style="fill:#130025;" d="M1385.796,501.885c-15.32-1.443-28.086,5.596-38.343,17.149
	c-12.964,38.15-33.702,103.421-38.509,143.697c2.121,16.204,7.468,32.273,15.178,44.99c1.343,2.214,2.75,4.328,4.22,6.341
	c20.247,15.924,50.043,25.55,68.338,28.16c56.949-7.653,72.97-60.243,71.553-118.212c-0.384-15.618,10.783-64.247-13.391-95.67
	C1438.602,507.23,1410.622,499.438,1385.796,501.885z"/>
<path style="fill:#FC7575;" d="M1328.843,701.644c0,0,2.93,39.551,0,57.617c-2.93,18.066-14.16,31.738-14.16,31.738l60.059,285.156
	l56.641-283.691c0,0-14.061-8.619-18.066-33.203c-4.007-24.584-3.906-87.891-3.906-87.891L1328.843,701.644z"/>
<path style="fill:#00158E;" d="M1374.741,1076.156l44.09-220.835c-33.619,3.66-66.969-0.57-91.797-5.673L1374.741,1076.156z"/>
<path style="fill:#000F6B;" d="M1418.831,855.321c-0.313,0.034-0.625,0.066-0.938,0.099c-11.04,45.115-36.258,145.14-44.86,153.743
	c-8.26,8.26-33.459-101.943-45.943-159.504c-0.018-0.004-0.037-0.007-0.056-0.011l47.707,226.508L1418.831,855.321z"/>
<path style="opacity:0.53;fill:#FD5E5A;" d="M1341.522,696.88c8.625,33.612,29.532,65.167,69.331,54.704
	c0.48-0.127,0.944-0.273,1.416-0.411c-2.943-28.1-2.86-79.802-2.86-79.802L1341.522,696.88z"/>
<path style="fill:#FC7575;" d="M1396.7,509.75c0,0,34.668-5.371,53.711,22.461c19.043,27.832,10.254,74.707,10.254,86.426
	c0,11.719,5.616,96.68-49.812,109.863c-55.427,13.184-74.212-47.363-74.212-83.984S1350.25,514.331,1396.7,509.75z"/>
<path style="opacity:0.53;fill:#FD5E5A;" d="M1358.396,542.431c-1.946,4.232-3.76,8.72-5.436,13.385
	c19.186-5.782,38.688-10.271,58.152-13.345c7.831,27.081,24.36,45.669,51.52,45.669c0.257-10.817-0.29-22.977-3.059-34.383
	C1427.789,540.748,1391.731,522.144,1358.396,542.431z"/>
<path style="fill:#FC7575;" d="M992.638,773.235c-0.667-0.82-56.133-53.615-67.104-50.311
	c-18.251,4.758,22.312,35.026,26.704,40.703c2.194,2.836,4.159,6.4,5.851,9.778c-1.437,0.412-2.782,0.784-3.991,1.075
	c-10.443,2.515-38.319,7.721-42.284,14.2c0,0-0.75,36.51,8.841,36.711c9.591,0.202,19.293-3.307,29.588-2.27
	c5.147,0.518,10.439-2.012,14.444-4.671c0.644-0.427,1.25-0.857,1.82-1.279c-1.33,2.239-1.674,4.758-0.32,7.508
	c4.918,9.992,38.938-7.241,40.414-13.623C1008.077,804.674,1000.489,782.896,992.638,773.235z M984.852,806.249
	c-3.128,0.753-9.139,2.912-13.671,6.157c-1.313-3.444-7.819-21.003-6.749-28.007c0.002-0.002,0.004-0.002,0.007-0.005
	c4.736-5.007,15.081-5.154,20.142-2.986l0,0c0.673,0.62,1.162,1.429,1.412,2.468C987.593,790.521,991.022,804.763,984.852,806.249z"
	/>
<path style="fill:#BADCFF;" d="M988.51,910.629c0,0,79.102,203.125,109.375,218.75s141.226-153.335,141.226-153.335
	s4.283-160.142-9.39-160.142c-13.672,0-69.879,66.857-86.05,107.072c-16.451,40.91-15.872,61.585-37.973,21.835
	c-22.579-40.609-62.256-95.161-62.256-95.161C1020.655,872.435,988.51,910.629,988.51,910.629z"/>
<path style="fill:#320063;" d="M1439.669,493.637c0,0-19.531-2.441-31.25,6.836c-11.719,9.277-37.598,13.672-52.734,85.449
	c-15.137,71.777-2.93,80.078-2.93,80.078s16.088,33.203-4.651,58.594c-20.739,25.391-61.435,15.797-84.216,2.441
	c-33.135-19.424-27.238-86.794-13.292-130.87c1.946-6.153,2.909-9.807,5.183-14.95c4.378-9.91,5.829-21.311,12.164-31.732
	c20.509-33.739,57.846-64.573,123.875-62.908C1391.817,486.575,1421.603,484.848,1439.669,493.637z"/>
<g>
	<path style="fill:#130025;" d="M1257.242,575.772c-4.12,12.368-3.534,10.554-6.646,20.393c-0.663,2.094-1.307,4.24-1.929,6.431
		c12.99-7.497,15.544-9.56,30.375-17.146c27.24-13.889,56.366-25.064,86.068-33.113c0.595-1.6,1.196-3.14,1.804-4.628
		C1328.794,551.288,1290.948,558.177,1257.242,575.772z"/>
</g>
<path style="fill:#00B3BF;" d="M1265.536,550.732c72.447-37.885,121.137-41.297,204.173-35.887v20
	c-69.717,0.258-138.601,19.202-196.505,48.727c-15.571,7.966-23.916,13.407-23.992,13.451L1265.536,550.732z"/>
<ellipse style="fill:#8792CE;" cx="1467.135" cy="527.333" rx="54.865" ry="58.667"/>
<ellipse style="fill:#EAE9F3;" cx="1468.807" cy="527.333" rx="53.193" ry="58.667"/>
<g>
	<ellipse style="fill:#7881B6;" cx="1467.135" cy="527.333" rx="54.865" ry="58.667"/>
	<ellipse style="fill:#6CBDE1;" cx="1468.807" cy="527.333" rx="53.193" ry="58.667"/>
	<path style="fill:#EAE9F3;" d="M1448.502,516.135c0-19.499,8.627-36.772,21.899-47.439c-0.53-0.017-1.062-0.029-1.595-0.029
		c-29.378,0-53.193,26.267-53.193,58.667c0,32.401,23.815,58.667,53.193,58.667c11.699,0,22.513-4.168,31.295-11.227
		C1471.461,573.843,1448.502,547.947,1448.502,516.135z"/>
</g>
<path style="fill:#8792CE;" d="M1477.607,524.846c0,4.811-3.536,8.71-7.898,8.71s-7.899-3.899-7.899-8.71
	c0-4.811,3.536-8.711,7.899-8.711S1477.607,520.035,1477.607,524.846z"/>
<g>
	<path style="fill:#2C46E6;" d="M854.557,793.443c-0.718,0-1.444-0.21-2.079-0.648c-1.667-1.15-2.086-3.434-0.935-5.101
		L990.69,586.058c1.15-1.668,3.433-2.086,5.1-0.936s2.086,3.434,0.936,5.101L857.578,791.859
		C856.866,792.89,855.721,793.443,854.557,793.443z"/>
</g>
<g>
	<path style="fill:#2C46E6;" d="M615.815,1047.597c-0.897,0-1.797-0.328-2.504-0.989c-1.479-1.384-1.557-3.704-0.173-5.183
		l230.952-246.907c1.382-1.479,3.703-1.557,5.183-0.173c1.479,1.383,1.556,3.703,0.173,5.183l-230.952,246.907
		C617.772,1047.206,616.795,1047.597,615.815,1047.597z"/>
</g>
<g>
	<path style="fill:#2C46E6;" d="M846.766,800.69c-0.74,0-1.486-0.223-2.133-0.687L658.871,666.855
		c-1.646-1.18-2.024-3.471-0.844-5.117c1.18-1.646,3.471-2.023,5.116-0.844l185.762,133.148c1.646,1.18,2.024,3.471,0.844,5.117
		C849.032,800.158,847.907,800.69,846.766,800.69z"/>
</g>
<g>
	<path style="fill:#2C46E6;" d="M945.846,1225.575c-1.666,0-3.173-1.143-3.567-2.834l-99.081-424.886
		c-0.459-1.972,0.767-3.944,2.738-4.404c1.972-0.457,3.944,0.767,4.404,2.738l99.081,424.886c0.46,1.973-0.766,3.943-2.738,4.404
		C946.402,1225.544,946.122,1225.575,945.846,1225.575z"/>
</g>
<path style="fill:#2C46E6;" d="M888.017,797.022c0,22.781-18.468,41.249-41.248,41.249c-22.781,0-41.249-18.468-41.249-41.249
	c0-22.781,18.468-41.249,41.249-41.249C869.549,755.773,888.017,774.241,888.017,797.022z"/>
<path style="fill:#BADCFF;" d="M873.055,794.986c0,14.518-11.769,26.286-26.287,26.286c-14.518,0-26.287-11.769-26.287-26.286
	c0-14.518,11.769-26.287,26.287-26.287C861.286,768.699,873.055,780.468,873.055,794.986z"/>
<g>
	<path style="fill:#BADCFF;" d="M652.764,756.902H476.891c-10.543,0-19.091-8.547-19.091-19.091V589.938
		c0-10.544,8.547-19.091,19.091-19.091h175.873c10.543,0,19.09,8.547,19.09,19.091v147.874
		C671.854,748.355,663.307,756.902,652.764,756.902z"/>
	<path style="fill:#2C46E6;" d="M661.223,572.823c1.264,2.55,1.977,5.421,1.977,8.459v147.875c0,10.543-8.547,19.09-19.091,19.09
		H468.236c-3.038,0-5.909-0.713-8.46-1.976c3.12,6.298,9.61,10.631,17.115,10.631h175.873c10.543,0,19.09-8.547,19.09-19.091
		V589.938C671.854,582.433,667.521,575.942,661.223,572.823z"/>
</g>
<g>
	<path style="fill:#BADCFF;" d="M652.764,1123.236H476.891c-10.543,0-19.091-8.548-19.091-19.091V956.271
		c0-10.544,8.547-19.091,19.091-19.091h175.873c10.543,0,19.09,8.547,19.09,19.091v147.875
		C671.854,1114.688,663.307,1123.236,652.764,1123.236z"/>
	<path style="fill:#2C46E6;" d="M661.223,939.156c1.264,2.551,1.977,5.421,1.977,8.46v147.875c0,10.543-8.547,19.09-19.091,19.09
		H468.236c-3.038,0-5.909-0.713-8.46-1.977c3.12,6.299,9.61,10.632,17.115,10.632h175.873c10.543,0,19.09-8.548,19.09-19.091
		V956.271C671.854,948.766,667.521,942.276,661.223,939.156z"/>
</g>
<g>
	<path style="fill:#BADCFF;" d="M883.231,620.361h203.445c11.262,0,20.392-9.129,20.392-20.392V454.698
		c0-11.263-9.13-20.392-20.392-20.392H883.231c-11.262,0-20.392,9.129-20.392,20.392V599.97
		C862.839,611.232,871.969,620.361,883.231,620.361z"/>
	<path style="fill:#2C46E6;" d="M874.969,436.282c-1.442,2.55-2.255,5.421-2.255,8.46v147.875c0,10.543,9.752,19.091,21.782,19.091
		h200.665c3.467,0,6.743-0.713,9.652-1.977c-3.559,6.299-10.964,10.631-19.527,10.631H884.621c-12.03,0-21.782-8.547-21.782-19.09
		V453.396C862.839,445.891,867.782,439.401,874.969,436.282z"/>
</g>
<g>
	<path style="fill:#BADCFF;" d="M857.57,1157.831h203.445c11.262,0,20.392,9.129,20.392,20.392v145.272
		c0,11.262-9.129,20.392-20.392,20.392H857.57c-11.262,0-20.392-9.13-20.392-20.392v-145.272
		C837.179,1166.96,846.309,1157.831,857.57,1157.831z"/>
	<path style="fill:#2C46E6;" d="M849.309,1341.91c-1.441-2.55-2.255-5.421-2.255-8.46v-147.874c0-10.544,9.752-19.091,21.782-19.091
		H1069.5c3.467,0,6.743,0.713,9.652,1.977c-3.559-6.299-10.964-10.631-19.527-10.631H858.96c-12.03,0-21.782,8.547-21.782,19.09
		v147.875C837.179,1332.301,842.122,1338.791,849.309,1341.91z"/>
</g>
<g>
	<path style="fill:#7686E6;" d="M535.282,626.625c0,3.487-2.827,6.315-6.314,6.315c-3.487,0-6.314-2.827-6.314-6.315
		c0-3.487,2.827-6.314,6.314-6.314C532.455,620.311,535.282,623.138,535.282,626.625z"/>
	<path style="fill:#7686E6;" d="M606.112,608.876c0,2.191-1.776,3.967-3.967,3.967s-3.967-1.776-3.967-3.967
		c0-2.191,1.776-3.967,3.967-3.967S606.112,606.685,606.112,608.876z"/>
	<path style="fill:#7686E6;" d="M560.688,722.84c-30.356,0-55.052-24.695-55.052-55.051c0-13.674,5.019-26.758,14.129-36.841
		l1.387-1.533l1.021,1.797c0.612,1.078,1.482,2.008,2.517,2.688l1.445,0.95l-1.149,1.293c-7.736,8.692-11.997,19.931-11.997,31.647
		c0,26.302,21.398,47.699,47.699,47.699c24.98,0,45.614-19.188,47.552-43.925c-9.17-1.802-15.919-9.893-15.919-19.372V617.15
		l4.262-6.497l1.286,1.616c0.727,0.915,1.745,1.584,2.865,1.884l1.995,0.536l-3.057,4.658v32.845
		c0,6.832,5.559,12.391,12.391,12.391c6.833,0,12.392-5.559,12.392-12.391v-32.73l-3.52-4.75l1.961-0.648
		c1.102-0.364,2.08-1.09,2.755-2.043l1.191-1.686l4.964,6.701v35.157c0,9.597-6.88,17.735-16.2,19.423
		C613.628,700.438,589.737,722.84,560.688,722.84z"/>
	<path style="fill:#7686E6;" d="M625.154,608.876c0,2.191-1.776,3.967-3.967,3.967s-3.967-1.776-3.967-3.967
		c0-2.191,1.776-3.967,3.967-3.967S625.154,606.685,625.154,608.876z"/>
	<polygon style="fill:#7686E6;" points="583.43,656.622 568.498,656.622 568.498,641.69 552.018,641.69 552.018,656.622 
		537.086,656.622 537.086,673.103 552.018,673.103 552.018,688.035 568.498,688.035 568.498,673.103 583.43,673.103 	"/>
</g>
<g>
	<g>
		<path style="fill:#7686E6;" d="M1021.817,530.107h-4.765l-9.876-13.62l-7.463,30.734l-5.748-53.331l-15.445,34.747l-6.775-12.317
			l-8.649,15.518l-11.78-14.404l-5.307,26.226l-4.979-45.086l-16.948,30.604h-40.757c-1.024,0-1.855,0.831-1.855,1.855l0,0
			c0,1.024,0.831,1.854,1.855,1.854h44.728l9.244-16.695l7.056,63.888l10.267-50.75l9.457,11.564l7.632-13.696l7.383,13.42
			l11.455-25.769l6.994,64.917l12.358-50.88l3.574,4.929h10.829C1023.352,532.551,1022.528,531.313,1021.817,530.107z"/>
		<path style="fill:#FD6100;" d="M1057.878,505.171c0,0,6.329-8.774,18.836-8.774c11.151,0,18.836,9.008,18.836,19.497
			c0,12.143-10.476,26.509-37.673,38.996c-27.196-12.487-37.672-26.853-37.672-38.996c0-10.49,7.685-19.497,18.836-19.497
			C1051.549,496.397,1057.878,505.171,1057.878,505.171z"/>
	</g>
</g>
<g>
	<path style="opacity:0.66;fill:#FFFFFF;" d="M1004.163,1281.272l-96.926-12.407c-6.16-0.788-10.514-6.421-9.725-12.58l6.56-51.245
		c0.789-6.159,6.421-10.514,12.58-9.725l96.927,12.407c6.159,0.788,10.513,6.421,9.725,12.58l-6.56,51.245
		C1015.955,1277.707,1010.322,1282.062,1004.163,1281.272z"/>
	<path style="fill:#7686E6;" d="M945.019,1215.007l-2.645-5.963c-0.766-1.727-2.477-2.84-4.365-2.84h-44.731
		c-2.637,0-4.774,2.138-4.774,4.775v30.372h0.079v57.246c0,2.638,2.138,4.774,4.775,4.774h131.95c2.637,0,4.775-2.137,4.775-4.774
		v-75.976c0-2.638-2.138-4.775-4.775-4.775h-75.924C947.495,1217.847,945.784,1216.733,945.019,1215.007z"/>
	<path style="fill:#EAE9F3;" d="M988.125,1261.562c0,14.559-11.802,26.36-26.36,26.36c-14.558,0-26.361-11.802-26.361-26.36
		s11.802-26.361,26.361-26.361C976.323,1235.2,988.125,1247.003,988.125,1261.562z"/>
	<polygon style="fill:#FD6100;" points="982.304,1254.367 969.068,1254.367 969.068,1241.132 954.46,1241.132 954.46,1254.367 
		941.225,1254.367 941.225,1268.976 954.46,1268.976 954.46,1282.211 969.068,1282.211 969.068,1268.976 982.304,1268.976 	"/>
</g>
<g>
	<circle style="fill:#00B3BF;" cx="554.408" cy="1001.329" r="13.102"/>
	
		<rect x="574.363" y="1018.632" transform="matrix(-1 -1.224647e-16 1.224647e-16 -1 1167.7075 2055.5313)" style="fill:#7686E6;" width="18.982" height="18.268"/>
	
		<rect x="577.17" y="1037.962" transform="matrix(-1 -1.224647e-16 1.224647e-16 -1 1167.708 2081.0586)" style="fill:#7686E6;" width="13.368" height="5.135"/>
	<path style="fill:#7686E6;" d="M572.258,1003.468c0-4.128-1.258-7.968-3.411-11.156v-12.603c3.032,0,5.489-2.458,5.489-5.489
		v-10.004h19.034v10.004c0,3.031,2.457,5.489,5.489,5.489v32.425c0,2.828-2.293,5.121-5.12,5.121h-19.771
		c-2.15,0-3.99-1.325-4.749-3.203C571.144,1010.98,572.258,1007.352,572.258,1003.468z"/>
	
		<rect x="569.777" y="957.487" transform="matrix(-1 -1.224647e-16 1.224647e-16 -1 1167.7075 1921.7025)" style="fill:#7686E6;" width="28.153" height="6.728"/>
	<path style="fill:#7686E6;" d="M532.372,1001.563c-0.06,0.627-0.091,1.263-0.091,1.905c0,9.583,6.78,17.612,15.795,19.545
		c-2.79,1.989-4.968,4.689-6.24,8.07c-2.202,5.852-1.153,12.436,1.517,17.946c3.191,6.587,8.678,11.839,14.951,15.497l-2.367,8.346
		C523.144,1063.558,509.213,1027.185,532.372,1001.563z"/>
	
		<rect x="540.686" y="1064.255" transform="matrix(-1 -1.224647e-16 1.224647e-16 -1 1108.8169 2146.9238)" style="fill:#7686E6;" width="27.445" height="18.414"/>
	<path style="fill:#8088C2;" d="M517.786,1092.496h101.869v-3.04c0-3.748-3.038-6.787-6.786-6.787h-88.297
		c-3.748,0-6.786,3.039-6.786,6.787V1092.496z"/>
	
		<rect x="557.802" y="1049.44" transform="matrix(-1 -1.224647e-16 1.224647e-16 -1 1168.0137 2108.0889)" style="fill:#FFFFFF;" width="52.41" height="9.208"/>
</g>
<path style="fill:#BADCFF;" d="M1477.184,815.607c0,0-10.059,111.623,5.143,196.63c3.819,21.357,62.787,30.838,95.008,55.096
	c53.701,40.43,91.135,94.998,100.681,116.682c21.769-9.821,21.637-107.858,9.72-146.797
	C1674.776,1011.335,1477.184,815.607,1477.184,815.607z"/>
<polygon style="fill:#00158E;" points="1790.808,956.251 1583.074,931.133 1452.951,1179.052 1621.426,1179.052 "/>
<path style="opacity:0.44;fill:#000F6B;" d="M1621.426,1179.052l169.382-222.8l-207.733-25.118l-3.71,7.069
	c32.478,8.502,95.309,28.432,104.636,57.284c9.963,30.816-62.555,138.845-93.971,183.565H1621.426z"/>
<polygon style="fill:#0021DB;" points="1575.434,919.854 1443.028,1174.621 1452.951,1179.052 1583.074,931.133 1790.808,956.251 
	1778.151,946.336 "/>
<g>
	<polygon style="fill:#FC7575;" points="1944.498,914.362 1956.133,958.785 1993.529,944.301 1986.81,904.956 	"/>
	<g>
		<path style="fill:#FC7575;" d="M1777.443,813.683c-3.215-4.594-25.123-32.684-28.855-30.073
			c-3.732,2.611,9.747,21.512,11.756,24.384c0,0-7.693-0.605-11.484,8.034c-2.541,5.791,13.432,33.359,20.127,44.315
			c5.845-1.829,14.476-8.823,14.18-14.853C1783.182,834.134,1779.906,817.204,1777.443,813.683z"/>
		<path style="opacity:0.53;fill:#FD5E5A;" d="M1977.17,907.099l-32.672,7.263l4.24,16.189c8.178-1.438,16.732-5.88,21.848-14.682
			C1971.873,913.655,1974.434,910.591,1977.17,907.099z"/>
		<polygon style="fill:#FC7575;" points="1933.561,1580.275 1929.064,1605.73 1909.033,1607.16 1912.447,1562.541 		"/>
		<path style="fill:#00123F;" d="M1932.551,1601.811c0,0-18.523,0.333-22.578-2.87s-8.346,2.985-14.898,11.28
			c-6.552,8.294-30.998,7.287-33.981,13.825c-2.259,4.952,70.296,3.495,73.964,3.392
			C1937.639,1627.363,1932.551,1601.811,1932.551,1601.811z"/>
		<polygon style="fill:#FC7575;" points="1987.948,1576.294 1983.453,1601.749 1963.422,1603.18 1966.835,1558.559 		"/>
		<path style="fill:#00123F;" d="M1986.939,1597.828c0,0-18.523,0.334-22.578-2.869s-8.346,2.985-14.898,11.279
			c-6.553,8.295-29.656,9.5-32.918,15.904c-3.263,6.402,69.696,5.367,71.298,3.34
			C1989.445,1623.455,1986.939,1597.828,1986.939,1597.828z"/>
		<path style="fill:#03257D;" d="M1945.527,1229.97l2.101,182.181l14.174,177.152l26.576,4.537c0,0,22.131-312.962,45.036-347.538
			c22.88-34.539-3.044-91.572-3.158-91.676c-0.002-0.002-0.002,0.001-0.003,0.002L1945.527,1229.97z"/>
		<path style="fill:#001B5E;" d="M2020.874,1240.082c9.852-14.872,17.127-34.594,15.3-57.038
			c-0.592-7.271-12.262-15.33-13.729-21.473l-76.918,68.398l2.101,182.181l7.895,98.667c14.18-84.988,40.534-207.042,45.82-241.995
			C2003.598,1265.69,2011.126,1254.799,2020.874,1240.082z"/>
		<path style="fill:#0021DB;" d="M1914.962,1144.841c0,0-13.505,166.24-14.593,221.799c-1.113,56.773,6.018,227.06,6.018,227.06
			l31.292,0.141c0,0,46.468-277.003,54.224-328.798c0,0-4.428,7.459,18.477-27.117c22.88-34.539,6.125-83.195,6.011-83.299
			c-0.002-0.002-40.688,15.188-40.689,15.188L1914.962,1144.841z"/>
		<path style="fill:#BE4800;" d="M2056.034,1064.171l-28.88,48.471l12.582,28.863c0,0,76.641-60.295,70.053-76.819
			c-5.547-13.913-82.139-96.142-102.83-118.729c-3.749-4.092-9.551-5.542-14.795-3.725l-35.527,12.311
			C1956.637,954.542,2059.17,1053.499,2056.034,1064.171z"/>
		<g>
			<path style="fill:#FD7B2A;" d="M1925.52,941.676c0,0-9.108,233.868-32.444,281.281c0,0,105.878-15.604,154.476-15.593
				c0,0-1.149-198.095-24.639-242.038C1999.422,921.382,1948.37,929.461,1925.52,941.676z"/>
		</g>
		<path style="fill:#AB3400;" d="M1979.045,1027.885c22.665-12.043,29.944-28.684,30.376-49.865
			c0.314-15.404-51.377-7.354-85.362-5.227c-0.626,12.018-1.459,26.85-2.516,43.278
			C1934.59,1030.379,1962.654,1036.594,1979.045,1027.885z"/>
		<path style="fill:#FD7B2A;" d="M1805.965,951.531c0,0,73.305,62.83,131.745,60.469c58.44-2.36,66.089-16.408,71.106-31.991
			c5.018-15.582-28.292-36.94-61.697-43.349c-33.405-6.408-92.973-5.765-102.13-14.211s-56.155-71.869-60.121-82.906l-28.343,12.059
			L1805.965,951.531z"/>
		<path style="fill:#FC7575;" d="M1959.704,841.976c0,0-9.924,4.905-18.359,17.435c-8.436,12.529-17.511,19.247-17.511,19.247
			l3.97,6.397c0,0-9.033,6.519-8.168,16.434c1.907,21.846,35.681,25.678,52.495,12.998c4.57-3.447,18.74-7.77,23.373-15.544
			C2007.914,878.114,2004.264,846.061,1959.704,841.976z"/>
		<path style="fill:#320063;" d="M1976.248,888.703c0,0-11.235-20.807-5.932-35.444c0,0-12.295-0.24-22.157-5.814
			c-17.795-10.059,3.835-47.491,30.562-20.806c0,0-2.298-18.1,16.634-14.872c18.932,3.229,25.848,10.781,22.433,28.76
			c-3.414,17.978,4.43,10.017,10.189,20.516c5.76,10.5-24.586,48.225-38.786,49.617s-14.2,1.392-14.2,1.392
			s20.272-11.357,14.585-19.953C1983.888,883.501,1976.248,888.703,1976.248,888.703z"/>
	</g>
</g>
<path style="fill:#FC7575;" d="M1537.979,1093.466c3.778-3.016,35.41,16.637,53.578,28.383c0.036-0.248,0.071-0.49,0.108-0.733
	c-17.098-12.684-47.029-27.821-40.182-32.176c3.509-2.232,78.64,28.039,78.65,28.046c7.91,3.584,8.274,3.924,16.437,7.53
	c-1.938-4.71-21.595-36.716-8.33-35.146l43.883,57.383c7.442,12.203,7.185,19.603,5.335,25.967
	c-2.275,7.832-13.279,28.841-31.213,33.063c-17.271,4.064-64.09-22.377-71.42-29.225c-7.874-6.774-61.553-53.695-52.979-66.771
	c0,0,44.754,43.688,49.505,38.271c0.278-1.251-44.25-30.818-47.735-42.37c-2.496-8.271,36.44,16.938,53.5,29.576
	C1571.822,1122.713,1535.373,1095.546,1537.979,1093.466z"/>
<g>
	<path style="fill:#2C46E6;" d="M722.773,1626.707h-137.78c-30.113,0-54.525-24.411-54.525-54.524v-350.059
		c0-30.113,24.412-54.525,54.525-54.525h137.78c30.113,0,54.525,24.412,54.525,54.525v350.059
		C777.297,1602.296,752.886,1626.707,722.773,1626.707z"/>
	<path style="fill:#2134AD;" d="M722.773,1167.599h-7.007c30.113,0,54.525,24.412,54.525,54.525v350.059
		c0,30.113-24.412,54.524-54.525,54.524h7.007c30.113,0,54.525-24.411,54.525-54.524v-350.059
		C777.297,1192.011,752.886,1167.599,722.773,1167.599z"/>
	<path style="fill:#CBD4FF;" d="M584.992,1619.7c-26.201,0-47.518-21.315-47.518-47.518v-350.06
		c0-26.201,21.316-47.518,47.518-47.518h137.78c26.202,0,47.518,21.316,47.518,47.518v350.06c0,26.202-21.316,47.518-47.518,47.518
		H584.992z"/>
	<g>
		<path style="fill:#8088C2;" d="M679.069,1199.019h-46.393c-1.414,0-2.561-1.146-2.561-2.56s1.147-2.56,2.561-2.56h46.393
			c1.414,0,2.56,1.146,2.56,2.56S680.483,1199.019,679.069,1199.019z"/>
	</g>
	<g>
		<path style="fill:#8088C2;" d="M683.777,1216.052h-55.81c-1.551,0-2.808-1.257-2.808-2.808s1.257-2.808,2.808-2.808h55.81
			c1.551,0,2.808,1.257,2.808,2.808S685.328,1216.052,683.777,1216.052z"/>
	</g>
	<path style="fill:#8088C2;" d="M612.47,1213.244c0,2.128-1.726,3.854-3.854,3.854s-3.854-1.726-3.854-3.854
		c0-2.129,1.726-3.854,3.854-3.854S612.47,1211.115,612.47,1213.244z"/>
	<circle style="fill:#727586;" cx="653.882" cy="1589.762" r="21.021"/>
	<circle style="fill:#DFE5FF;" cx="650.425" cy="1589.762" r="21.021"/>
	<path style="fill:#676E9C;" d="M745.28,1556.654H561.643c-6.178,0-11.187-5.008-11.187-11.187v-283.259
		c0-6.179,5.009-11.187,11.187-11.187H745.28c6.178,0,11.187,5.008,11.187,11.187v283.259
		C756.466,1551.646,751.458,1556.654,745.28,1556.654z"/>
	<path style="fill:#FFFFFF;" d="M555.128,1545.048v-282.42c0-3.385,2.744-6.129,6.128-6.129h184.411
		c3.385,0,6.128,2.744,6.128,6.129v282.42c0,3.386-2.744,6.129-6.128,6.129H561.256
		C557.872,1551.177,555.128,1548.434,555.128,1545.048z"/>
	<path style="fill:#BADCFF;" d="M746.135,1256.499H560.787c-3.12,0-5.659,2.978-5.659,6.637v42.659h196.667v-42.659
		C751.795,1259.477,749.256,1256.499,746.135,1256.499z"/>
	<g>
		<rect x="601.063" y="1314.864" style="fill:#6B9ECE;" width="111.803" height="7.517"/>
	</g>
	<polygon style="fill:#6B9ECE;" points="574.712,1318.623 585.276,1325.774 585.276,1311.472 	"/>
	<polygon style="fill:#6B9ECE;" points="731.492,1318.623 720.928,1325.774 720.928,1311.472 	"/>
	<path style="fill:#00B3BF;" d="M618.862,1292.102h-48.557c-5.028,0-9.105-4.076-9.105-9.104v-4.795
		c0-5.028,4.077-9.104,9.105-9.104h48.557c5.029,0,9.105,4.076,9.105,9.104v4.795
		C627.968,1288.025,623.891,1292.102,618.862,1292.102z"/>
	<path style="fill:#6B9ECE;" d="M737.401,1292.102h-11.819c-2.584,0-4.679-2.095-4.679-4.679v-13.646
		c0-2.584,2.095-4.679,4.679-4.679h11.819c2.584,0,4.679,2.095,4.679,4.679v13.646
		C742.081,1290.007,739.985,1292.102,737.401,1292.102z"/>
	<rect x="729.798" y="1272.863" style="fill:#FFFFFF;" width="3.387" height="14.925"/>
	
		<rect x="729.506" y="1273.961" transform="matrix(6.123234e-17 -1 1 6.123234e-17 -548.8344 2011.8179)" style="fill:#FFFFFF;" width="3.971" height="12.729"/>
	<rect x="564.938" y="1352.733" style="opacity:0.18;fill:#6B9ECE;" width="21.75" height="188.098"/>
	<rect x="591.042" y="1352.733" style="opacity:0.18;fill:#6B9ECE;" width="21.75" height="188.098"/>
	<rect x="617.348" y="1352.733" style="opacity:0.18;fill:#6B9ECE;" width="21.751" height="188.098"/>
	<rect x="643.653" y="1352.733" style="opacity:0.18;fill:#6B9ECE;" width="21.751" height="188.098"/>
	<rect x="669.959" y="1352.733" style="opacity:0.18;fill:#6B9ECE;" width="21.751" height="188.098"/>
	<rect x="696.265" y="1352.733" style="opacity:0.18;fill:#6B9ECE;" width="21.75" height="188.098"/>
	<rect x="722.57" y="1352.733" style="opacity:0.18;fill:#6B9ECE;" width="21.75" height="188.098"/>
	<rect x="564.938" y="1331.16" style="fill:#6B9ECE;" width="21.75" height="14.285"/>
	<rect x="591.042" y="1331.16" style="fill:#6B9ECE;" width="21.75" height="14.285"/>
	<rect x="617.348" y="1331.16" style="fill:#6B9ECE;" width="21.751" height="14.285"/>
	<rect x="643.653" y="1331.16" style="fill:#6B9ECE;" width="21.751" height="14.285"/>
	<rect x="669.959" y="1331.16" style="fill:#6B9ECE;" width="21.751" height="14.285"/>
	<rect x="696.265" y="1331.16" style="fill:#FD6100;" width="21.75" height="14.285"/>
	<rect x="722.57" y="1331.16" style="fill:#FD6100;" width="21.75" height="14.285"/>
	<rect x="561.201" y="1374.408" style="fill:#FFFFFF;" width="185.331" height="4.671"/>
	<rect x="561.201" y="1402.479" style="fill:#FFFFFF;" width="185.331" height="4.671"/>
	<rect x="561.201" y="1430.548" style="fill:#FFFFFF;" width="185.331" height="4.672"/>
	<rect x="561.201" y="1458.618" style="fill:#FFFFFF;" width="185.331" height="4.672"/>
	<rect x="561.201" y="1486.688" style="fill:#FFFFFF;" width="185.331" height="4.672"/>
	<rect x="560.796" y="1514.759" style="fill:#FFFFFF;" width="185.331" height="4.671"/>
	<path style="fill:#FF1F20;" d="M650.983,1408.874l-17.845-7.685c0.636,0.778,22.983,28.134,22.363,27.374
		c4.504-10.106,14.467-32.464,19.093-42.844L650.983,1408.874z"/>
</g>
</svg>
