<svg xmlns="http://www.w3.org/2000/svg" xml:space="preserve" width="655.359" height="655.359" style="shape-rendering:geometricPrecision;text-rendering:geometricPrecision;image-rendering:optimizeQuality;fill-rule:evenodd;clip-rule:evenodd" viewBox="0 0 6.827 6.827"><defs><clipPath id="id0"><path d="M3.413 0a3.413 3.413 0 1 1 0 6.827 3.413 3.413 0 0 1 0-6.827z"/></clipPath><style>.fil14{fill:none;fill-rule:nonzero}.fil1{fill:#5e35b1}.fil10{fill:#79acc4}.fil3{fill:#dbc0b2}.fil5{fill:#dfc4b6}.fil9{fill:#e1f5fe}.fil4{fill:#eccebe}.fil11,.fil12,.fil17{fill:#004d40;fill-rule:nonzero}.fil11,.fil17{fill:#00897b}.fil17{fill:#616161}</style></defs><g id="Layer_x0020_1"><path d="M3.413 0a3.413 3.413 0 1 1 0 6.827 3.413 3.413 0 0 1 0-6.827z" style="fill:#9575cd"/><g style="clip-path:url(#id0)"><g id="_435566056"><path id="_4312276881" class="fil1" d="m4.121 1.801 3.786 3.786.019.023.016.024.016.026.014.027.012.029.011.03.01.03.01.033.007.032.007.034.006.034.005.035.003.035.003.036.002.035.002.036v.107l-.002.035-.002.035-.002.034-.003.033-.003.033-.004.032-3.786-3.787.003-.031.004-.033.002-.033.003-.034.002-.035.001-.035V2.37l.001-.035V2.3l-.002-.036-.002-.036-.003-.035-.004-.035-.004-.035-.006-.034-.007-.034-.008-.033-.009-.032-.01-.03-.011-.03-.013-.029-.014-.027-.015-.026-.017-.024z"/><path id="_431227304" class="fil1" d="m4.289 2.631 3.786 3.787.004.005.004.006.004.006.003.007.004.007.003.008.002.008.003.008.002.009.002.01.002.009.001.01.001.01.001.01v.01l.001.011v.034l-.002.012v.011l-.002.012-.002.012-.002.012-.002.013-.003.012-.003.012L4.31 2.896l.003-.012.002-.013.003-.012.002-.012.002-.012v-.012l.002-.012V2.8l.001-.012v-.044l-.001-.01-.001-.01-.002-.01-.001-.01-.002-.008-.002-.009-.003-.008-.003-.008-.003-.008-.003-.007-.003-.007-.004-.006-.004-.006z"/><path id="_431228144" class="fil1" d="m4.31 2.896 3.786 3.786-.003.012-.003.011-.004.011-.003.011-.004.01-.004.011-.005.01-.004.01-.004.009-.005.009-.005.009-.005.008-.005.008-.005.007-.005.008-.005.006-.006.007-.005.006-.006.005-.005.005-.006.005-.005.004-.006.004-.005.003-.006.002-.006.003-.005.001-.006.001-.005.001h-.011l-.006-.001L4.152 3.09l.005.001h.017l.005-.001.006-.002.006-.002.005-.003.006-.003.005-.003.006-.005.006-.004.005-.005.006-.006.005-.006.005-.006.006-.007.005-.007.005-.007.005-.008.005-.009L4.27 3l.004-.01.005-.009.004-.01.004-.01.004-.01.004-.01.004-.011.003-.011.004-.011z"/><path id="_431228456" class="fil1" d="m4.152 3.091 3.786 3.787-.002.006-.002.006-.002.006-.001.006-.002.005-.002.006-.002.005-.002.006-.002.005-.002.005-.001.005-.002.005-.002.005-.002.004-.001.004-.002.005-.002.004-.001.004-.002.003-.001.004-.002.004-.002.003-.001.003-.001.003-.002.003-.001.003-.002.002v.003l-.002.002-.001.002-.001.002-.002.001L4.1 3.222l.001-.002.001-.001.002-.002v-.003l.002-.002.002-.003v-.002l.002-.003.002-.003.001-.003.002-.004.001-.003.002-.004.001-.004.002-.004.002-.004.001-.004.002-.004.002-.005.002-.004.001-.005.002-.005.002-.005.002-.005.002-.006.002-.005.001-.006.002-.006.002-.005.002-.006.002-.007z"/><path id="_431227760" class="fil1" d="m4.1 3.222 3.786 3.786-.004.007-.005.006-.005.007-.006.008-.007.007-.007.008-.007.008-.008.009-.008.008-.008.009-.009.009-.01.009-.009.01-.01.009-.01.01-.01.009-.011.01-.011.01-.012.01-.011.01-.012.01-.012.01-.012.01-.013.01-.012.01-.013.01-.013.01-.013.01-.013.01-.014.01-.013.01-.014.01-3.786-3.787.014-.01.013-.01.013-.009.014-.01.013-.01.013-.01.012-.01.013-.01.012-.01.013-.01.012-.01.012-.01.011-.01.012-.01.01-.01.011-.01.01-.01.011-.01.01-.01.01-.008.009-.01.009-.008.008-.01.008-.008.008-.008.007-.008.007-.008.006-.008.006-.007.006-.007.005-.007z"/><path id="_431228504" class="fil1" d="m3.888 3.607 3.787 3.786.01.012.012.012.01.012.011.012.01.013.01.013.01.013.01.013.01.013.01.014.009.013.009.014.009.014.008.014.009.014.008.014.008.014.008.014.008.015.007.014.008.014.007.014.007.014-3.786-3.786-.007-.014-.008-.014-.007-.015-.008-.014-.007-.014-.008-.014-.008-.014-.008-.014-.009-.014-.009-.014-.008-.014L4 3.747l-.009-.013-.01-.014-.009-.013-.01-.013-.01-.013-.01-.013-.01-.013-.01-.012-.012-.012-.01-.012z"/><path id="_431228984" class="fil1" d="M4.263 3.957 8.05 7.743l-.004-.004-.005-.003-.004-.004-.005-.003-.006-.003-.006-.003-.006-.003-.007-.003-.008-.003-.008-.003-.008-.002-.01-.002-.009-.002-.01-.002-.01-.002-.012-.002-.012-.002-.013-.001-.013-.001-.014-.001-3.787-3.787.014.001.014.002.012.001.013.002.01.001.012.002.01.002.01.002.009.003.008.002.008.003.008.003.007.002.006.003.006.003.005.004.006.003.004.004.004.003z"/><path id="_431228696" class="fil1" d="m4.29 3.931 3.787 3.786.005.006.005.006.004.005.003.007.003.006.003.006.002.007.002.006.001.007.001.007v.03L4.32 4.023V3.994l-.001-.007-.002-.007-.001-.006-.002-.007-.003-.006-.003-.007-.003-.006-.004-.006-.005-.005z"/><path id="_431228576" class="fil1" d="M4.32 4.023 8.107 7.81v.003L4.32 4.028v-.003z"/><path id="_431228888" class="fil1" d="M4.814 4.345 8.6 8.132l.012.014.012.015.012.018.011.02.01.02.012.022.01.024.01.025.01.026.01.027.009.029.01.03.008.03.01.031.008.032.008.034.009.033.008.035.008.034.008.036.008.036.007.036.008.036.008.037.007.036.008.037.007.036.008.037.007.036.008.036.007.036L5.092 5.28l-.008-.036-.007-.036-.008-.036-.007-.037-.007-.036-.008-.037-.008-.037-.007-.036-.008-.037-.008-.036-.007-.035L5 4.845l-.009-.035-.008-.034-.008-.034-.009-.033-.008-.032-.009-.032-.009-.03-.01-.03-.009-.028-.01-.028-.01-.026-.01-.025-.01-.023-.01-.022-.011-.021-.012-.02-.011-.017-.012-.016z"/><path id="_431229200" class="fil1" d="m3.048 3.514 3.787 3.787-.014-.01-.013-.01-.014-.01-.013-.01-.013-.01-.013-.01-.013-.01-.012-.01-.013-.01-.012-.01-.012-.01-.012-.01-.011-.01-.012-.01-.01-.01-.012-.01-.01-.01-.01-.01-.01-.009-.01-.01L2.81 3.318l.01.009.01.01.01.009.01.01.011.01.011.01.011.01.012.01.012.01.012.01.012.01.013.01.012.01.013.01.013.01.013.01.013.01.014.01.013.01z"/><path id="_431228912" class="fil1" d="m4.408 5.28 3.786 3.786h-.057L4.35 5.28z"/><path id="_431229224" class="fil1" d="m4.35 5.28 3.787 3.786H7.67L3.885 5.28z"/><path id="_431229080" class="fil1" d="M3.885 5.28 7.67 9.066h-.08L3.805 5.28z"/><path id="_431229152" class="fil1" d="M3.805 5.28 7.59 9.066h-.19L3.617 5.28z"/><path id="_431228744" class="fil1" d="m3.616 5.28 3.786 3.786H7.2L3.413 5.28z"/><path id="_431229296" class="fil1" d="M3.413 5.28 7.2 9.066h-.204L3.21 5.28z"/><path id="_431229920" class="fil1" d="m3.21 5.28 3.786 3.786h-.06L3.148 5.28z"/><path id="_431229464" class="fil1" d="m3.149 5.28 3.786 3.786h-.208L2.94 5.28z"/><path id="_431229488" class="fil1" d="m2.94 5.28 3.787 3.786h-.464L2.476 5.28z"/><path id="_431229944" class="fil1" d="m2.476 5.28 3.787 3.786h-.058L2.42 5.28z"/><path id="_431229728" class="fil1" d="m2.419 5.28 3.786 3.786h-.684L1.735 5.28z"/><path id="_431229896" class="fil1" d="m2.674 3.09 3.787 3.787-.006.001H6.45l-.006.001H6.44l-.006-.001-.006-.002-.005-.002-.006-.002-.006-.003-.006-.004-.005-.004-.006-.004-.006-.005-3.786-3.786.006.005.005.004.006.004.006.004.006.003.005.002.006.002.006.002h.022z"/><path id="_431229776" class="fil1" d="m5.092 5.28 3.786 3.786h-.684L4.408 5.28z"/><path id="_435565912" class="fil1" d="M2.735 1.824c.188-.243.81-.416 1.214-.125.327.07.339.577.299.91.005 0 .01.001.016.004.059.025.079.151.046.283-.032.125-.101.21-.158.195a.62.62 0 0 1-.052.131 1.55 1.55 0 0 1-.322.292c.14.094.245.25.319.402l.187.093c-.002-.052-.037-.09-.19-.102a.441.441 0 0 1-.02-.037c.214.011.25.073.246.153v.004c.303.158.422.253.481.306.136.12.21.567.29.947H1.736c.08-.38.155-.827.29-.947.059-.051.176-.145.464-.297l-.001-.013c-.004-.08.032-.142.246-.153a.941.941 0 0 1 .314-.356 1.55 1.55 0 0 1-.322-.292.624.624 0 0 1-.052-.132c-.057.019-.128-.066-.16-.194-.034-.132-.013-.258.045-.283a.053.053 0 0 1 .03-.004v-.023c-.027-.27-.016-.553.146-.762z"/></g></g><path d="M3.413 0a3.413 3.413 0 1 1 0 6.827 3.413 3.413 0 0 1 0-6.827z" style="fill:none"/><path class="fil3" d="M2.56 2.613c.057-.025.132.06.165.192s.013.258-.046.284c-.058.025-.132-.062-.165-.193-.034-.132-.013-.258.045-.283zM4.264 2.613c-.058-.025-.132.06-.165.192-.034.132-.013.258.045.284.058.025.133-.062.166-.193.033-.132.013-.258-.046-.283z"/><path class="fil4" d="M3.77 3.123v.812c-.197.24-.517.232-.713 0v-.812c0-.44.712-.44.712 0z"/><path class="fil5" d="M3.77 3.123v.544c-.135.098-.265.153-.357.153-.091 0-.22-.055-.356-.153v-.544c0-.44.712-.44.712 0z"/><path d="M3.078 3.757c-.742.325-.965.498-1.053.576-.135.12-.21.567-.29.947h3.357c-.08-.38-.155-.827-.29-.947-.089-.078-.303-.247-1.045-.572l-.68-.004z" style="fill:#b3e5fc"/><path d="M2.978 3.701 2.94 5.28h.944l-.038-1.579h-.87z" style="fill:#edd0c2"/><path d="M2.847 4.148c.187.139.704.23 1.169.033-.321.424-.211 1.099-.211 1.099h-.656s-.067-.591-.302-1.132z" style="fill:#5c6bc0"/><path class="fil9" d="M3.053 3.511v.42L3.21 5.28h-.27l-.295-.601.282-.188-.345-.162s.072-.566.471-.818zM3.774 3.511v.42L3.616 5.28h.269l.296-.601-.283-.188.345-.162s-.128-.595-.47-.818z"/><path class="fil10" d="M2.419 5.28h.057l-.002-.44s-.026.192-.055.44zM4.408 5.28H4.35c.003-.256.003-.44.003-.44l.055.44z"/><path class="fil11" d="M2.82 4.708a.346.346 0 0 1 .006.013l.002.007a.923.923 0 0 1 .02.057c.012.036.02.078.012.115-.013.053-.058.082-.106.099l-.01-.031c.038-.015.071-.039.082-.08a.176.176 0 0 0-.008-.094.888.888 0 0 0-.02-.055l-.002-.006a.327.327 0 0 0-.005-.013l.029-.012zM2.248 4.723a.21.21 0 0 0-.005.013l-.002.005a.365.365 0 0 0-.028.142c.005.052.038.08.084.091l-.005.032c-.064-.015-.105-.05-.11-.12a.379.379 0 0 1 .027-.15l.004-.01a.257.257 0 0 1 .005-.013l.03.01z"/><path class="fil12" d="m2.203 4.708.09-.215.077-.185a.233.233 0 0 1 .068-.095.125.125 0 0 1 .162-.003.21.21 0 0 1 .061.085l.082.193.091.213-.014.006-.03.013-.014.006-.09-.213-.083-.193a.147.147 0 0 0-.042-.06.063.063 0 0 0-.041-.014.074.074 0 0 0-.043.017.17.17 0 0 0-.049.07l-.077.184-.088.21-.015-.004-.03-.01-.012-.004-.003-.001z"/><path style="fill:#424242;fill-rule:nonzero" d="M2.203 4.708h.003z"/><path class="fil12" d="M2.718 5.043a.062.062 0 0 1-.082-.08.062.062 0 0 1 .115-.001.062.062 0 0 1-.033.081zM2.368 5.05a.062.062 0 0 1-.082-.08.062.062 0 0 1 .116-.001.062.062 0 0 1-.034.081z"/><path class="fil14" d="M4.484 4.528"/><path class="fil12" d="M4.36 4.656a.126.126 0 0 1-.13-.125.126.126 0 0 1 .126-.128.126.126 0 0 1 .128.125.126.126 0 0 1-.125.128z"/><path d="M4.358 4.597a.068.068 0 0 1-.068-.067.068.068 0 0 1 .067-.068.068.068 0 0 1 .068.066.068.068 0 0 1-.067.069z" style="fill:#00796b;fill-rule:nonzero"/><path d="M4.358 4.587a.058.058 0 0 0 .057-.058.058.058 0 0 0-.058-.058.058.058 0 0 0-.057.059.058.058 0 0 0 .058.057zm0 .02a.078.078 0 0 1-.078-.077.077.077 0 0 1 .076-.078.077.077 0 0 1 .079.076.077.077 0 0 1-.076.079zm.077-.078" style="fill:#00211c;fill-rule:nonzero"/><path class="fil17" d="M2.715 3.907c-.166.012-.194.057-.19.115 0 .017.003.036.007.055.006.035.012.071.008.108h-.037c.005-.034-.001-.069-.007-.102-.004-.02-.007-.04-.008-.06-.004-.08.032-.142.246-.153a.441.441 0 0 1-.02.037zM4.093 3.907c.166.012.194.057.19.115-.003.08-.012.113-.002.204.007.07.021.146.045.188h.036a.567.567 0 0 1-.048-.196c-.007-.078.003-.123.006-.195.005-.08-.032-.142-.246-.153a.441.441 0 0 0 .02.037z"/><path class="fil5" d="M3.77 3.123v.544c-.135.098-.265.153-.357.153-.091 0-.22-.055-.356-.153v-.544c0-.44.712-.44.712 0z"/><path class="fil4" d="M3.413 1.664c-1.194 0-.765 1.443-.687 1.558.086.127.494.463.687.463.193 0 .601-.336.687-.463.078-.115.508-1.558-.687-1.558z"/><path d="M2.867 2.147c-.069.378-.242.343-.229.787-.055-.346-.139-.807.097-1.11.188-.243.81-.416 1.214-.125.446.095.306 1.002.247 1.174-.042-.278-.136-.394-.253-.72-.16.114-.87.14-1.076-.006z" style="fill:#293439"/><path d="M3.052 3.175c.24.086.519.072.723 0-.067.307-.596.315-.723 0z" style="fill:#e4b7a0"/></g></svg>