<?xml version="1.0" encoding="UTF-8"?>
<svg xmlns="http://www.w3.org/2000/svg" xmlns:xlink="http://www.w3.org/1999/xlink" width="4000px" height="3000px" viewBox="0 0 4000 3000" version="1.1">
<g id="surface1">
<rect x="0" y="0" width="4000" height="3000" style="fill:rgb(7.450981%,8.627451%,9.803922%);fill-opacity:1;stroke:none;"/>
<path style=" stroke:none;fill-rule:nonzero;fill:rgb(100%,100%,100%);fill-opacity:1;" d="M 1005.519531 994.851562 L 1005.519531 686.140625 L 1094.144531 686.140625 L 1094.144531 1383.238281 L 1005.519531 1383.238281 L 1005.519531 1074.515625 L 701.785156 1074.515625 L 701.785156 1383.230469 L 614.164062 1383.230469 L 614.164062 686.140625 L 701.785156 686.140625 L 701.785156 994.851562 Z M 1173.8125 686.140625 L 1522.359375 686.140625 L 1522.359375 765.808594 L 1261.46875 765.808594 L 1261.46875 1002.800781 C 1283.363281 993.515625 1308.085938 986.382812 1335.636719 981.402344 C 1363.183594 976.425781 1391.238281 973.277344 1419.808594 971.964844 C 1448.34375 970.625 1474.226562 971.949219 1497.460938 975.9375 L 1497.460938 1051.632812 L 1489.515625 1057.578125 C 1471.578125 1052.273438 1449.167969 1049.625 1422.289062 1049.625 C 1395.386719 1049.625 1367.667969 1051.953125 1339.132812 1056.609375 C 1310.59375 1061.242188 1284.707031 1068.871094 1261.46875 1079.5 L 1261.46875 1303.566406 L 1522.359375 1303.566406 L 1522.359375 1383.238281 L 1173.8125 1383.238281 Z M 1615.003906 1383.238281 L 1525.375 1383.238281 L 1525.375 1365.320312 L 1694.667969 686.140625 L 1891.828125 687.144531 L 2060.121094 1365.328125 L 2060.121094 1383.238281 L 1970.492188 1383.238281 L 1916.726562 1159.171875 L 1668.773438 1159.171875 Z M 1758.390625 767.816406 L 1684.703125 1081.507812 L 1901.785156 1081.507812 L 1827.097656 767.816406 Z M 2093.007812 1383.238281 L 2093.007812 686.140625 L 2180.628906 686.140625 L 2180.628906 1303.566406 L 2416.660156 1303.566406 L 2416.660156 1383.238281 Z M 2411.675781 686.140625 L 2808.015625 686.140625 L 2808.015625 766.8125 L 2654.65625 766.8125 L 2654.65625 1383.238281 L 2567 1383.238281 L 2567 766.8125 L 2411.679688 766.8125 Z M 3233.265625 994.851562 L 3233.265625 686.140625 L 3321.878906 686.140625 L 3321.878906 1383.238281 L 3233.257812 1383.238281 L 3233.257812 1074.515625 L 2929.519531 1074.515625 L 2929.519531 1383.230469 L 2841.863281 1383.230469 L 2841.863281 686.140625 L 2929.519531 686.140625 L 2929.519531 994.851562 Z M 997.558594 2073.140625 C 997.558594 2109.660156 989.085938 2141.195312 972.136719 2167.75 C 955.21875 2194.304688 931.820312 2214.734375 901.949219 2229.027344 C 872.074219 2243.292969 836.882812 2250.429688 796.382812 2250.429688 C 764.523438 2250.429688 735.144531 2246.613281 708.246094 2238.984375 C 681.367188 2231.332031 658.460938 2222.199219 639.535156 2211.59375 C 620.605469 2200.96875 606.5 2192.003906 597.214844 2184.695312 L 597.214844 2099.042969 L 610.136719 2099.042969 C 630.730469 2116.976562 657.460938 2133.242188 690.332031 2147.832031 C 723.175781 2162.453125 756.195312 2169.761719 789.394531 2169.761719 C 810.648438 2169.761719 830.40625 2166.601562 848.660156 2160.277344 C 866.917969 2153.988281 881.523438 2143.871094 892.472656 2129.925781 C 903.417969 2115.976562 908.894531 2098.710938 908.894531 2078.125 C 908.894531 2052.238281 902.257812 2030.832031 888.980469 2013.914062 C 875.699219 1996.96875 855.460938 1980.199219 828.265625 1963.601562 L 707.757812 1887.949219 C 689.15625 1875.980469 670.066406 1862.195312 650.492188 1846.589844 C 630.898438 1831.007812 614.632812 1811.757812 601.707031 1788.84375 C 588.75 1765.929688 582.269531 1737.875 582.269531 1704.679688 C 582.269531 1666.851562 590.90625 1634.996094 608.171875 1609.109375 C 625.4375 1583.199219 648.675781 1563.601562 677.882812 1550.320312 C 707.089844 1537.042969 739.949219 1530.40625 776.46875 1530.40625 C 808.992188 1530.40625 837.539062 1533.726562 862.113281 1540.363281 C 886.664062 1547 907.570312 1555.300781 924.835938 1565.257812 C 942.105469 1575.21875 955.71875 1585.175781 965.675781 1595.132812 L 965.675781 1680.789062 L 951.742188 1680.789062 C 935.144531 1661.539062 911.574219 1645.113281 881.027344 1631.515625 C 850.480469 1617.890625 816.296875 1611.078125 778.476562 1611.078125 C 747.257812 1611.078125 721.53125 1618.546875 701.289062 1633.480469 C 681.027344 1648.421875 670.894531 1669.839844 670.894531 1697.730469 C 670.894531 1723.617188 679.863281 1745.851562 697.800781 1764.429688 C 715.707031 1783.035156 737.285156 1800.300781 762.527344 1816.230469 L 874.039062 1885.9375 C 896.632812 1899.886719 917.21875 1915.496094 935.796875 1932.761719 C 954.378906 1950.003906 969.316406 1969.917969 980.613281 1992.511719 C 991.910156 2015.078125 997.558594 2041.953125 997.558594 2073.140625 M 1045.34375 2238.464844 L 1045.34375 1541.367188 L 1132.964844 1541.367188 L 1132.964844 2158.796875 L 1368.996094 2158.796875 L 1368.996094 2238.464844 Z M 1379.957031 1889.914062 C 1379.957031 1804.949219 1393.570312 1736.066406 1420.796875 1683.273438 C 1447.996094 1630.511719 1483.679688 1591.679688 1527.851562 1566.785156 C 1571.996094 1541.886719 1619.953125 1529.4375 1671.726562 1529.4375 C 1723.527344 1529.4375 1771.5 1541.886719 1815.640625 1566.785156 C 1859.785156 1591.679688 1895.46875 1630.511719 1922.699219 1683.273438 C 1949.925781 1736.066406 1963.539062 1804.949219 1963.539062 1889.914062 C 1963.539062 1974.242188 1949.925781 2042.960938 1922.699219 2096.070312 C 1895.46875 2149.183594 1859.785156 2188.1875 1815.640625 2213.089844 C 1771.5 2237.980469 1723.527344 2250.429688 1671.726562 2250.429688 C 1619.953125 2250.429688 1571.996094 2237.980469 1527.851562 2213.082031 C 1483.679688 2188.1875 1447.996094 2149.183594 1420.796875 2096.070312 C 1393.570312 2042.960938 1379.957031 1974.242188 1379.957031 1889.914062 M 1470.589844 1889.914062 C 1470.589844 1951.675781 1479.382812 2003.128906 1496.96875 2044.269531 C 1514.558594 2085.445312 1538.625 2116.152344 1569.171875 2136.386719 C 1599.714844 2156.652344 1633.902344 2166.785156 1671.726562 2166.785156 C 1708.910156 2166.785156 1742.773438 2156.652344 1773.320312 2136.386719 C 1803.863281 2116.152344 1828.265625 2085.445312 1846.527344 2044.269531 C 1864.785156 2003.128906 1873.914062 1951.675781 1873.914062 1889.914062 C 1873.914062 1827.511719 1864.609375 1775.898438 1846 1735.074219 C 1827.421875 1694.25 1802.859375 1663.707031 1772.316406 1643.4375 C 1741.769531 1623.203125 1708.242188 1613.085938 1671.726562 1613.085938 C 1633.90625 1613.085938 1599.722656 1623.378906 1569.175781 1643.964844 C 1538.628906 1664.523438 1514.5625 1695.226562 1496.96875 1736.078125 C 1479.382812 1776.902344 1470.589844 1828.183594 1470.589844 1889.914062 M 1970.480469 1541.367188 L 2366.855469 1541.367188 L 2366.855469 1622.039062 L 2213.464844 1622.039062 L 2213.464844 2238.464844 L 2125.84375 2238.464844 L 2125.84375 1622.039062 L 1970.480469 1622.039062 Z M 1970.480469 1541.367188 "/>
<path style=" stroke:none;fill-rule:nonzero;fill:rgb(2.745098%,75.686276%,0%);fill-opacity:1;" d="M 2709.160156 1551.460938 C 2600.195312 1551.460938 2511.859375 1639.796875 2511.859375 1748.765625 C 2511.859375 1857.730469 2600.195312 1946.066406 2709.160156 1946.066406 C 2818.125 1946.066406 2906.460938 1857.730469 2906.460938 1748.765625 C 2906.460938 1639.796875 2818.125 1551.460938 2709.160156 1551.460938 "/>
<path style=" stroke:none;fill-rule:nonzero;fill:rgb(15.686275%,42.352942%,100%);fill-opacity:1;" d="M 2913.746094 1810.464844 C 2806.597656 1810.464844 2719.738281 1897.324219 2719.738281 2004.472656 C 2719.738281 2111.617188 2806.597656 2198.476562 2913.746094 2198.476562 C 3020.894531 2198.476562 3107.753906 2111.617188 3107.753906 2004.472656 C 3107.753906 1897.324219 3020.894531 1810.464844 2913.746094 1810.464844 "/>
<path style=" stroke:none;fill-rule:nonzero;fill:rgb(77.254903%,23.529412%,23.529412%);fill-opacity:1;" d="M 2625.246094 1813.132812 C 2519.570312 1813.132812 2433.90625 1898.796875 2433.90625 2004.472656 C 2433.90625 2110.144531 2519.570312 2195.8125 2625.246094 2195.8125 C 2730.921875 2195.8125 2816.585938 2110.144531 2816.585938 2004.472656 C 2816.585938 1898.796875 2730.921875 1813.132812 2625.246094 1813.132812 "/>
</g>
</svg>
