<?xml version="1.0" encoding="UTF-8"?>
<!DOCTYPE svg PUBLIC "-//W3C//DTD SVG 1.1//EN" "http://www.w3.org/Graphics/SVG/1.1/DTD/svg11.dtd">
<!-- Creator: CorelDRAW -->
<svg xmlns="http://www.w3.org/2000/svg" xml:space="preserve" width="2048px" height="2048px" style="shape-rendering:geometricPrecision; text-rendering:geometricPrecision; image-rendering:optimizeQuality; fill-rule:evenodd; clip-rule:evenodd"
viewBox="0 0 2048 2048"
 xmlns:xlink="http://www.w3.org/1999/xlink">
 <defs>
  <style type="text/css">
   <![CDATA[
    .fil2 {fill:none}
    .fil8 {fill:#020D1A}
    .fil4 {fill:#051324}
    .fil3 {fill:#15262E}
    .fil5 {fill:#4FC3F7}
    .fil6 {fill:#81D4FA}
    .fil1 {fill:#E53935}
    .fil0 {fill:#EF5350}
    .fil7 {fill:white}
   ]]>
  </style>
   <clipPath id="id0">
    <path d="M1024 -0.0011811c565.541,0 1024,458.461 1024,1024 0,565.541 -458.461,1024 -1024,1024 -565.541,0 -1024,-458.461 -1024,-1024 0,-565.541 458.461,-1024 1024,-1024z"/>
   </clipPath>
 </defs>
 <g id="Layer_x0020_1">
  <metadata id="CorelCorpID_0Corel-Layer"/>
  <path class="fil0" d="M1024 -0.0011811c565.541,0 1024,458.461 1024,1024 0,565.541 -458.461,1024 -1024,1024 -565.541,0 -1024,-458.461 -1024,-1024 0,-565.541 458.461,-1024 1024,-1024z"/>
  <g style="clip-path:url(#id0)">
   <g id="_466421296">
    <g>
     <polygon id="_4664131361" class="fil1" points="1372.66,482.371 2508.55,1618.25 2509.37,1619.24 2510.18,1620.24 2510.96,1621.26 2511.72,1622.3 2512.45,1623.36 2513.15,1624.44 2513.83,1625.54 2514.48,1626.65 2515.11,1627.78 2515.71,1628.93 2516.28,1630.09 2516.82,1631.27 2517.33,1632.46 1381.45,496.58 1380.94,495.385 1380.4,494.207 1379.83,493.044 1379.23,491.898 1378.6,490.767 1377.95,489.654 1377.27,488.557 1376.57,487.479 1375.83,486.42 1375.08,485.378 1374.3,484.356 1373.49,483.354 "/>
     <polygon id="_466413400" class="fil1" points="1381.45,496.58 2517.33,1632.46 2517.81,1633.65 2518.26,1634.84 2518.68,1636.05 2519.07,1637.27 2519.43,1638.5 2519.76,1639.74 2520.07,1640.99 2520.34,1642.25 2520.58,1643.52 2520.79,1644.8 2520.97,1646.09 2521.12,1647.38 2521.24,1648.68 2521.32,1649.99 2521.37,1651.31 2521.39,1652.63 1385.51,516.744 1385.49,515.424 1385.44,514.108 1385.36,512.801 1385.24,511.499 1385.09,510.206 1384.91,508.92 1384.7,507.642 1384.46,506.372 1384.19,505.112 1383.88,503.861 1383.55,502.621 1383.19,501.39 1382.8,500.17 1382.38,498.962 1381.93,497.764 "/>
     <polygon id="_466415464" class="fil1" points="1385.51,516.744 2521.39,1652.63 2521.39,2667.14 1385.51,1531.26 "/>
     <polygon id="_466414648" class="fil1" points="1385.51,1531.26 2521.39,2667.14 2521.37,2668.46 2521.32,2669.77 2521.24,2671.08 2521.12,2672.38 2520.97,2673.68 2520.79,2674.96 2520.58,2676.24 2520.34,2677.51 2520.07,2678.77 2519.76,2680.02 2519.43,2681.26 2519.07,2682.49 2518.68,2683.71 2518.26,2684.92 2517.81,2686.12 2517.33,2687.3 1381.45,1551.42 1381.93,1550.24 1382.38,1549.04 1382.8,1547.83 1383.19,1546.61 1383.55,1545.38 1383.88,1544.14 1384.19,1542.89 1384.46,1541.63 1384.7,1540.36 1384.91,1539.08 1385.09,1537.79 1385.24,1536.5 1385.36,1535.2 1385.44,1533.89 1385.49,1532.58 "/>
     <polygon id="_466415008" class="fil1" points="1381.45,1551.42 2517.33,2687.3 2516.82,2688.5 2516.28,2689.68 2515.71,2690.84 2515.11,2691.98 2514.48,2693.12 2513.83,2694.23 2513.15,2695.32 2512.45,2696.4 2511.72,2697.46 2510.96,2698.5 2510.18,2699.53 2509.37,2700.53 2508.55,2701.51 2507.69,2702.47 2506.82,2703.41 2505.92,2704.33 1370.04,1568.45 1370.94,1567.53 1371.81,1566.59 1372.66,1565.63 1373.49,1564.65 1374.3,1563.64 1375.08,1562.62 1375.83,1561.58 1376.57,1560.52 1377.27,1559.44 1377.95,1558.35 1378.6,1557.23 1379.23,1556.1 1379.83,1554.96 1380.4,1553.79 1380.94,1552.61 "/>
     <polygon id="_466414096" class="fil1" points="1370.04,1568.45 2505.92,2704.33 2504.99,2705.24 2504.04,2706.13 2503.07,2706.99 2502.08,2707.83 2501.07,2708.64 2500.04,2709.43 2498.99,2710.19 2497.93,2710.93 2496.84,2711.64 2495.74,2712.32 2494.63,2712.98 2493.49,2713.6 2492.35,2714.2 2491.18,2714.77 2490,2715.32 2488.81,2715.83 1352.93,1579.95 1354.12,1579.43 1355.3,1578.89 1356.46,1578.32 1357.61,1577.72 1358.74,1577.09 1359.86,1576.44 1360.96,1575.75 1362.04,1575.04 1363.11,1574.31 1364.16,1573.54 1365.19,1572.76 1366.2,1571.94 1367.19,1571.11 1368.16,1570.24 1369.11,1569.36 "/>
     <polygon id="_466410520" class="fil1" points="1352.93,1579.95 2488.81,2715.83 2487.62,2716.3 2486.43,2716.75 2485.22,2717.17 2484,2717.57 2482.77,2717.93 2481.53,2718.26 2480.27,2718.56 2479.01,2718.84 2477.75,2719.08 2476.47,2719.29 2475.18,2719.47 2473.89,2719.62 2472.59,2719.73 2471.28,2719.82 2469.97,2719.87 2468.65,2719.88 1332.77,1584 1334.09,1583.98 1335.4,1583.93 1336.71,1583.85 1338.01,1583.74 1339.3,1583.59 1340.59,1583.41 1341.86,1583.2 1343.13,1582.95 1344.39,1582.68 1345.64,1582.38 1346.88,1582.04 1348.12,1581.68 1349.34,1581.29 1350.55,1580.87 1351.74,1580.42 "/>
     <polygon id="_466417360" class="fil1" points="1332.77,1584 2468.65,2719.88 1851.11,2719.88 715.231,1584 "/>
     <polygon id="_466413928" class="fil1" points="715.231,1584 1851.11,2719.88 1849.79,2719.87 1848.48,2719.82 1847.17,2719.73 1845.87,2719.62 1844.58,2719.47 1843.29,2719.29 1842.02,2719.08 1840.75,2718.84 1839.49,2718.56 1838.24,2718.26 1837,2717.93 1835.77,2717.57 1834.55,2717.17 1833.34,2716.75 1832.14,2716.3 1830.95,2715.83 695.071,1579.95 696.257,1580.42 697.454,1580.87 698.664,1581.29 699.884,1581.68 701.116,1582.04 702.356,1582.38 703.607,1582.68 704.867,1582.95 706.136,1583.2 707.414,1583.41 708.699,1583.59 709.992,1583.74 711.292,1583.85 712.599,1583.93 713.912,1583.98 "/>
     <polygon id="_466412560" class="fil1" points="695.071,1579.95 1830.95,2715.83 1829.76,2715.32 1828.58,2714.77 1827.42,2714.2 1826.27,2713.6 1825.14,2712.98 1824.02,2712.32 1822.92,2711.64 1821.84,2710.93 1820.77,2710.19 1819.72,2709.43 1818.69,2708.64 1817.68,2707.83 681.802,1571.94 682.814,1572.76 683.842,1573.54 684.89,1574.31 685.955,1575.04 687.038,1575.75 688.138,1576.44 689.255,1577.09 690.388,1577.72 691.536,1578.32 692.701,1578.89 693.878,1579.43 "/>
    </g>
    <path id="_466421080" class="fil1" d="M715.231 463.999l617.537 0c7.05001,0 13.8673,1.44213 20.1603,4.05473 6.39804,2.65394 12.2067,6.58938 17.1106,11.4945 4.84489,4.84725 8.75198,10.6252 11.4118,17.0315 2.61024,6.28819 4.05591,13.1043 4.05591,20.165l0 1014.51c0,7.06064 -1.44567,13.8768 -4.05591,20.165 -2.65984,6.4063 -6.56693,12.1843 -11.4118,17.0315 -4.90394,4.90512 -10.7126,8.84056 -17.1106,11.4945 -6.29292,2.6126 -13.1102,4.05473 -20.1603,4.05473l-617.537 0c-7.05001,0 -13.8673,-1.44213 -20.1603,-4.05473 -6.39804,-2.65394 -12.2067,-6.58938 -17.1106,-11.4945 -4.84489,-4.84725 -8.75198,-10.6252 -11.4118,-17.0315 -2.61024,-6.28819 -4.05591,-13.1043 -4.05591,-20.165l0 -1014.51c0,-7.06064 1.44567,-13.8768 4.05591,-20.165 2.65984,-6.4063 6.56693,-12.1843 11.4118,-17.0315 4.90394,-4.90512 10.7126,-8.84056 17.1106,-11.4945 6.29292,-2.6126 13.1102,-4.05473 20.1603,-4.05473z"/>
   </g>
  </g>
  <path class="fil2" d="M1024 -0.0011811c565.541,0 1024,458.461 1024,1024 0,565.541 -458.461,1024 -1024,1024 -565.541,0 -1024,-458.461 -1024,-1024 0,-565.541 458.461,-1024 1024,-1024z"/>
  <path class="fil3" d="M715.231 463.999l617.537 0c7.05001,0 13.8673,1.44213 20.1603,4.05473 6.39804,2.65394 12.2067,6.58938 17.1106,11.4945 4.84489,4.84725 8.75198,10.6252 11.4118,17.0315 2.61024,6.28819 4.05591,13.1043 4.05591,20.165l0 1014.51c0,7.06064 -1.44567,13.8768 -4.05591,20.165 -2.65984,6.4063 -6.56693,12.1843 -11.4118,17.0315 -4.90394,4.90512 -10.7126,8.84056 -17.1106,11.4945 -6.29292,2.6126 -13.1102,4.05473 -20.1603,4.05473l-617.537 0c-7.05001,0 -13.8673,-1.44213 -20.1603,-4.05473 -6.39804,-2.65394 -12.2067,-6.58938 -17.1106,-11.4945 -4.84489,-4.84725 -8.75198,-10.6252 -11.4118,-17.0315 -2.61024,-6.28819 -4.05591,-13.1043 -4.05591,-20.165l0 -1014.51c0,-7.06064 1.44567,-13.8768 4.05591,-20.165 2.65984,-6.4063 6.56693,-12.1843 11.4118,-17.0315 4.90394,-4.90512 10.7126,-8.84056 17.1106,-11.4945 6.29292,-2.6126 13.1102,-4.05473 20.1603,-4.05473z"/>
  <polygon class="fil4" points="732.332,553.476 1315.67,553.476 1315.67,1351.01 732.332,1351.01 "/>
  <polygon class="fil5" points="739.462,565.438 1306.35,565.438 1306.35,1351.01 739.462,1351.01 "/>
  <polygon class="fil6" points="822.859,565.438 823.68,565.438 1306.35,565.438 1306.35,1351.01 1177.75,1351.01 1177.73,1351.01 "/>
  <polygon class="fil5" points="739.462,565.438 822.859,565.438 1177.73,1351.01 739.462,1351.01 "/>
  <path class="fil7" d="M1044.87 1422.71c-2.65276,-1.0937 -5.70119,-1.6937 -9.04135,-1.6937 -3.34016,0 -6.38859,0.6 -9.04135,1.6937 -2.80158,1.15512 -5.33268,2.85827 -7.45749,4.98544 -2.20394,2.20748 -3.95906,4.78583 -5.12481,7.60512 -1.10079,2.66103 -1.70906,5.70473 -1.70906,9.03308 0,3.22205 0.61063,6.21969 1.7126,8.87835 1.20473,2.90551 2.95866,5.50985 5.12126,7.67599 2.11299,2.11417 4.68898,3.84213 7.59331,5.04685 2.66457,1.10551 5.6693,1.71732 8.90552,1.71732 3.23504,0 6.23977,-0.611811 8.90552,-1.71732 2.90433,-1.20473 5.48032,-2.93268 7.59331,-5.04685 2.1626,-2.16614 3.91654,-4.77048 5.12126,-7.67599 1.10197,-2.65866 1.71142,-5.6563 1.71142,-8.87835 0,-3.32835 -0.607087,-6.37205 -1.70788,-9.03308 -1.16575,-2.81929 -2.92087,-5.39764 -5.12481,-7.60512 -2.1248,-2.12717 -4.65591,-3.83032 -7.45749,-4.98544z"/>
  <path class="fil7" d="M1024 1391.78c9.32599,0 18.3603,1.89213 26.7236,5.33977 8.58662,3.54095 16.311,8.72953 22.7693,15.1937 6.40394,6.40985 11.5878,14.1165 15.1524,22.7362 3.44882,8.34095 5.35512,17.3658 5.35512,26.7154 0,9.37914 -1.90748,18.4193 -5.35867,26.7437 -3.52796,8.50394 -8.70946,16.1788 -15.1488,22.6229 -6.49252,6.49961 -14.2028,11.7213 -22.7221,15.2563 -8.3256,3.45355 -17.3728,5.36339 -26.7709,5.36339 -9.39804,0 -18.4453,-1.90984 -26.7709,-5.36339 -8.5193,-3.53504 -16.2295,-8.7567 -22.7221,-15.2563 -6.43938,-6.4441 -11.6209,-14.1189 -15.1488,-22.6229 -3.45118,-8.32442 -5.35867,-17.3646 -5.35867,-26.7437 0,-9.34961 1.9063,-18.3744 5.35512,-26.7154 3.56457,-8.61969 8.74843,-16.3264 15.1524,-22.7362 6.45827,-6.46418 14.1827,-11.6528 22.7693,-15.1937 8.36339,-3.44764 17.3977,-5.33977 26.7236,-5.33977z"/>
  <rect class="fil8" x="941.778" y="506.047" width="164.444" height="18.3764" rx="9.1878" ry="9.1878"/>
  <path class="fil4" d="M1024 1405.17c7.54134,0 14.8465,1.53071 21.6095,4.31811 6.94253,2.86299 13.1894,7.05827 18.4122,12.2858 5.17796,5.18268 9.36969,11.4142 12.2516,18.3839 2.78977,6.74528 4.32992,14.0433 4.32992,21.6036 0,7.58505 -1.54134,14.8937 -4.33229,21.626 -2.85236,6.8752 -7.04292,13.0819 -12.2492,18.2929 -5.25,5.25591 -11.485,9.47835 -18.3744,12.3366 -6.73111,2.79331 -14.048,4.33701 -21.6473,4.33701 -7.59922,0 -14.9162,-1.5437 -21.6473,-4.33701 -6.88938,-2.85827 -13.1244,-7.08071 -18.3744,-12.3366 -5.2063,-5.21103 -9.39686,-11.4177 -12.2492,-18.2929 -2.79095,-6.73229 -4.33229,-14.041 -4.33229,-21.626 0,-7.56024 1.54016,-14.8583 4.32992,-21.6036 2.88189,-6.96969 7.07363,-13.2012 12.2516,-18.3839 5.22284,-5.22756 11.4697,-9.42284 18.4122,-12.2858 6.763,-2.7874 14.0681,-4.31811 21.6095,-4.31811z"/>
 </g>
</svg>
